<?xml version="1.0" encoding="utf-8"?>
<!-- Generator: Adobe Illustrator 16.0.0, SVG Export Plug-In . SVG Version: 6.00 Build 0)  -->
<!DOCTYPE svg PUBLIC "-//W3C//DTD SVG 1.1//EN" "http://www.w3.org/Graphics/SVG/1.1/DTD/svg11.dtd">
<svg version="1.1" id="Calque_1" xmlns="http://www.w3.org/2000/svg" xmlns:xlink="http://www.w3.org/1999/xlink" x="0px" y="0px"
	 width="76.79px" height="76.79px" viewBox="0 0 76.79 76.79" enable-background="new 0 0 76.79 76.79" xml:space="preserve">
<g>
	<g opacity="0.25">
		<path fill="#505F7E" d="M38.434,76.366c-20.917,0-37.933-17.017-37.933-37.933S17.518,0.5,38.434,0.5s37.933,17.017,37.933,37.934
			S59.351,76.366,38.434,76.366z M32.347,30.751c-0.553,0-1.002,0.45-1.002,1.002v30.598c0,0.562,0.44,1.002,1.002,1.002h12.175
			c0.562,0,1.002-0.44,1.002-1.002V31.753c0-0.552-0.449-1.002-1.002-1.002H32.347z M32.347,13.513c-0.553,0-1.002,0.45-1.002,1.002
			v9.413c0,0.553,0.45,1.002,1.002,1.002h12.175c0.562,0,1.002-0.44,1.002-1.002v-9.413c0-0.553-0.449-1.002-1.002-1.002H32.347z"/>
	</g>
	<path fill="#505F7E" d="M38.434,1c20.641,0,37.433,16.792,37.433,37.434S59.075,75.866,38.434,75.866
		c-20.641,0-37.433-16.792-37.433-37.433S17.793,1,38.434,1 M32.347,25.43h12.175c0.828,0,1.502-0.674,1.502-1.502v-9.413
		c0-0.829-0.674-1.502-1.502-1.502H32.347c-0.829,0-1.502,0.674-1.502,1.502v9.413C30.844,24.756,31.518,25.43,32.347,25.43
		 M32.347,63.853h12.175c0.828,0,1.502-0.674,1.502-1.502V31.753c0-0.828-0.674-1.502-1.502-1.502H32.347
		c-0.829,0-1.502,0.674-1.502,1.502v30.598C30.844,63.179,31.518,63.853,32.347,63.853 M38.434,0
		C17.208,0,0.001,17.208,0.001,38.433c0,21.226,17.208,38.433,38.433,38.433c21.226,0,38.433-17.207,38.433-38.433
		C76.867,17.208,59.66,0,38.434,0L38.434,0z M32.347,24.43c-0.281,0-0.502-0.221-0.502-0.502v-9.413
		c0-0.281,0.221-0.502,0.502-0.502h12.175c0.281,0,0.502,0.222,0.502,0.502v9.413c0,0.281-0.221,0.502-0.502,0.502H32.347
		L32.347,24.43z M32.347,62.853c-0.281,0-0.502-0.221-0.502-0.502V31.753c0-0.271,0.221-0.502,0.502-0.502h12.175
		c0.281,0,0.502,0.231,0.502,0.502v30.598c0,0.281-0.221,0.502-0.502,0.502H32.347L32.347,62.853z"/>
</g>
</svg>
