<?xml version="1.0" encoding="utf-8"?>
<!-- Generator: Adobe Illustrator 16.0.0, SVG Export Plug-In . SVG Version: 6.00 Build 0)  -->
<!DOCTYPE svg PUBLIC "-//W3C//DTD SVG 1.1//EN" "http://www.w3.org/Graphics/SVG/1.1/DTD/svg11.dtd">
<svg version="1.1" id="Calque_1" xmlns="http://www.w3.org/2000/svg" xmlns:xlink="http://www.w3.org/1999/xlink" x="0px" y="0px"
	 width="76.79px" height="76.79px" viewBox="0 0 76.79 76.79" enable-background="new 0 0 76.79 76.79" xml:space="preserve">
<pattern  x="-441.239" y="-241.78" width="72" height="72" patternUnits="userSpaceOnUse" id="_x35_0_xA0__x25__10_lpp" viewBox="20 -72 72 72" overflow="visible">
	<g>
		<polygon fill="none" points="20,0 20,-72 92,-72 92,0 		"/>
		<line fill="none" stroke="#1D1D1B" stroke-width="3.6" x1="19.75" y1="-3.601" x2="92.25" y2="-3.601"/>
		<line fill="none" stroke="#1D1D1B" stroke-width="3.6" x1="19.75" y1="-18" x2="92.25" y2="-18"/>
		<line fill="none" stroke="#1D1D1B" stroke-width="3.6" x1="19.75" y1="-32.4" x2="92.25" y2="-32.4"/>
		<line fill="none" stroke="#1D1D1B" stroke-width="3.6" x1="19.75" y1="-46.801" x2="92.25" y2="-46.801"/>
		<line fill="none" stroke="#1D1D1B" stroke-width="3.6" x1="19.75" y1="-61.2" x2="92.25" y2="-61.2"/>
		<line fill="none" stroke="#1D1D1B" stroke-width="3.6" x1="0" y1="-61.2" x2="14" y2="-61.2"/>
		<line fill="none" stroke="#1D1D1B" stroke-width="3.6" x1="19.75" y1="-10.801" x2="92.25" y2="-10.801"/>
		<line fill="none" stroke="#1D1D1B" stroke-width="3.6" x1="19.75" y1="-25.2" x2="92.25" y2="-25.2"/>
		<line fill="none" stroke="#1D1D1B" stroke-width="3.6" x1="19.75" y1="-39.601" x2="92.25" y2="-39.601"/>
		<line fill="none" stroke="#1D1D1B" stroke-width="3.6" x1="19.75" y1="-54" x2="92.25" y2="-54"/>
		<line fill="none" stroke="#1D1D1B" stroke-width="3.6" x1="19.75" y1="-68.4" x2="92.25" y2="-68.4"/>
		<line fill="none" stroke="#1D1D1B" stroke-width="3.6" x1="0" y1="-68.4" x2="14" y2="-68.4"/>
	</g>
</pattern>
<g>
	<g opacity="0.25">
		<path fill="#808080" d="M38.261,76.02c-20.821,0-37.76-16.938-37.76-37.76S17.44,0.5,38.261,0.5
			c20.821,0,37.76,16.939,37.76,37.76S59.082,76.02,38.261,76.02z M32.201,30.61c-0.551,0-1,0.449-1,1v30.459c0,0.561,0.439,1,1,1
			h12.12c0.561,0,1-0.439,1-1V31.61c0-0.551-0.448-1-1-1H32.201z M32.201,13.45c-0.551,0-1,0.449-1,1v9.37c0,0.551,0.449,1,1,1
			h12.12c0.561,0,1-0.439,1-1v-9.37c0-0.561-0.439-1-1-1H32.201z"/>
	</g>
	<g opacity="0.25">

			<pattern  id="SVGID_1_" xlink:href="#_x35_0_xA0__x25__10_lpp" patternTransform="matrix(0.7071 0.7071 -0.7071 0.7071 -7497.9634 2849.209)"  opacity="0.25">
		</pattern>
		<path fill="url(#SVGID_1_)" d="M38.261,0c-21.13,0-38.26,17.13-38.26,38.26s17.13,38.26,38.26,38.26s38.26-17.13,38.26-38.26
			S59.391,0,38.261,0z M44.82,62.069c0,0.28-0.22,0.5-0.5,0.5h-12.12c-0.28,0-0.5-0.22-0.5-0.5V31.61c0-0.27,0.22-0.5,0.5-0.5h12.12
			c0.28,0,0.5,0.23,0.5,0.5V62.069z M44.82,23.82c0,0.28-0.22,0.5-0.5,0.5h-12.12c-0.28,0-0.5-0.22-0.5-0.5v-9.37
			c0-0.28,0.22-0.5,0.5-0.5h12.12c0.28,0,0.5,0.22,0.5,0.5V23.82z"/>
	</g>
	<path fill="#4D4D4D" d="M38.261,1c20.545,0,37.26,16.715,37.26,37.26c0,20.545-16.715,37.26-37.26,37.26S1.001,58.805,1.001,38.26
		C1.001,17.714,17.716,1,38.261,1 M32.201,25.32h12.12c0.827,0,1.5-0.673,1.5-1.5v-9.37c0-0.827-0.673-1.5-1.5-1.5h-12.12
		c-0.827,0-1.5,0.673-1.5,1.5v9.37C30.701,24.647,31.374,25.32,32.201,25.32 M32.201,63.569h12.12c0.827,0,1.5-0.673,1.5-1.5V31.61
		c0-0.827-0.673-1.5-1.5-1.5h-12.12c-0.827,0-1.5,0.673-1.5,1.5v30.459C30.701,62.896,31.374,63.569,32.201,63.569 M38.261,0
		c-21.13,0-38.26,17.13-38.26,38.26s17.13,38.26,38.26,38.26s38.26-17.13,38.26-38.26S59.391,0,38.261,0L38.261,0z M32.201,24.32
		c-0.28,0-0.5-0.22-0.5-0.5v-9.37c0-0.28,0.22-0.5,0.5-0.5h12.12c0.28,0,0.5,0.22,0.5,0.5v9.37c0,0.28-0.22,0.5-0.5,0.5H32.201
		L32.201,24.32z M32.201,62.569c-0.28,0-0.5-0.22-0.5-0.5V31.61c0-0.27,0.22-0.5,0.5-0.5h12.12c0.28,0,0.5,0.23,0.5,0.5v30.459
		c0,0.28-0.22,0.5-0.5,0.5H32.201L32.201,62.569z"/>
</g>
</svg>
