<?xml version="1.0" encoding="utf-8"?>
<!-- Generator: Adobe Illustrator 16.0.0, SVG Export Plug-In . SVG Version: 6.00 Build 0)  -->
<!DOCTYPE svg PUBLIC "-//W3C//DTD SVG 1.1//EN" "http://www.w3.org/Graphics/SVG/1.1/DTD/svg11.dtd">
<svg version="1.1" id="Calque_1" xmlns="http://www.w3.org/2000/svg" xmlns:xlink="http://www.w3.org/1999/xlink" x="0px" y="0px"
	 width="76.79px" height="76.79px" viewBox="0 0 76.79 76.79" enable-background="new 0 0 76.79 76.79" xml:space="preserve">
<g>
	<g opacity="0.25">
		<path fill="#505F7E" d="M38.261,76.02c-20.821,0-37.76-16.938-37.76-37.76S17.44,0.5,38.261,0.5
			c20.821,0,37.76,16.939,37.76,37.76S59.082,76.02,38.261,76.02z M19.201,25.61c-0.551,0-1,0.449-1,1v35.459c0,0.561,0.439,1,1,1
			h38.12c0.561,0,1-0.439,1-1V26.61c0-0.551-0.448-1-1-1H19.201z M19.201,13.45c-0.551,0-1,0.449-1,1v6.37c0,0.551,0.449,1,1,1
			h38.12c0.561,0,1-0.439,1-1v-6.37c0-0.561-0.439-1-1-1H19.201z"/>
	</g>
	<path fill="#505F7E" d="M38.261,1c20.545,0,37.26,16.715,37.26,37.26c0,20.545-16.715,37.26-37.26,37.26S1.001,58.805,1.001,38.26
		C1.001,17.714,17.716,1,38.261,1 M19.201,22.32h38.12c0.827,0,1.5-0.673,1.5-1.5v-6.37c0-0.827-0.673-1.5-1.5-1.5h-38.12
		c-0.827,0-1.5,0.673-1.5,1.5v6.37C17.701,21.647,18.374,22.32,19.201,22.32 M19.201,63.569h38.12c0.827,0,1.5-0.673,1.5-1.5V26.61
		c0-0.827-0.673-1.5-1.5-1.5h-38.12c-0.827,0-1.5,0.673-1.5,1.5v35.459C17.701,62.896,18.374,63.569,19.201,63.569 M38.261,0
		c-21.13,0-38.26,17.13-38.26,38.26s17.13,38.26,38.26,38.26s38.26-17.13,38.26-38.26S59.391,0,38.261,0L38.261,0z M19.201,21.32
		c-0.28,0-0.5-0.22-0.5-0.5v-6.37c0-0.28,0.22-0.5,0.5-0.5h38.12c0.28,0,0.5,0.22,0.5,0.5v6.37c0,0.28-0.22,0.5-0.5,0.5H19.201
		L19.201,21.32z M19.201,62.569c-0.28,0-0.5-0.22-0.5-0.5V26.61c0-0.27,0.22-0.5,0.5-0.5h38.12c0.28,0,0.5,0.23,0.5,0.5v35.459
		c0,0.28-0.22,0.5-0.5,0.5H19.201L19.201,62.569z"/>
</g>
<line fill="none" stroke="#505F7E" stroke-linecap="round" stroke-linejoin="round" stroke-miterlimit="10" x1="23.776" y1="32.76" x2="53.863" y2="32.76"/>
<line fill="none" stroke="#505F7E" stroke-linecap="round" stroke-linejoin="round" stroke-miterlimit="10" x1="23.776" y1="40.663" x2="53.863" y2="40.663"/>
<line fill="none" stroke="#505F7E" stroke-linecap="round" stroke-linejoin="round" stroke-miterlimit="10" x1="23.351" y1="48.566" x2="53.438" y2="48.566"/>
<line fill="none" stroke="#505F7E" stroke-linecap="round" stroke-linejoin="round" stroke-miterlimit="10" x1="23.351" y1="56.47" x2="53.438" y2="56.47"/>
</svg>
