<?xml version="1.0" encoding="utf-8"?>
<!-- Generator: Adobe Illustrator 16.0.0, SVG Export Plug-In . SVG Version: 6.00 Build 0)  -->
<!DOCTYPE svg PUBLIC "-//W3C//DTD SVG 1.1//EN" "http://www.w3.org/Graphics/SVG/1.1/DTD/svg11.dtd">
<svg version="1.1" id="Calque_1" xmlns="http://www.w3.org/2000/svg" xmlns:xlink="http://www.w3.org/1999/xlink" x="0px" y="0px"
	 width="76.79px" height="76.79px" viewBox="0 0 76.79 76.79" enable-background="new 0 0 76.79 76.79" xml:space="preserve">
<g>
	<g opacity="0.25">
		<path fill="#505F7E" d="M38.39,76.29c-20.893,0-37.89-17.002-37.89-37.9C0.5,17.497,17.497,0.5,38.39,0.5
			c20.898,0,37.9,16.997,37.9,37.89C76.29,59.288,59.288,76.29,38.39,76.29z M33.301,18.13c-0.05,0-0.1,0.007-0.149,0.022
			c-0.209,0.065-0.351,0.259-0.351,0.478v39.529c0,0.219,0.142,0.412,0.351,0.478c0.049,0.015,0.099,0.022,0.149,0.022
			c0.161,0,0.316-0.078,0.411-0.216l13.66-19.77c0.118-0.171,0.118-0.397,0-0.568l-13.66-19.76
			C33.617,18.208,33.462,18.13,33.301,18.13z"/>
	</g>
	<path fill="#505F7E" d="M38.39,1c20.623,0,37.4,16.773,37.4,37.39c0,20.623-16.777,37.4-37.4,37.4C17.773,75.79,1,59.013,1,38.39
		C1,17.773,17.773,1,38.39,1 M33.301,59.159c0.322,0,0.632-0.156,0.823-0.432l13.66-19.77c0.237-0.342,0.237-0.795,0-1.137
		l-13.66-19.76c-0.19-0.275-0.5-0.431-0.823-0.431c-0.099,0-0.2,0.015-0.298,0.045c-0.417,0.13-0.702,0.517-0.702,0.955v39.529
		c0,0.438,0.285,0.824,0.702,0.955C33.102,59.145,33.202,59.159,33.301,59.159 M38.39,0C17.189,0,0,17.189,0,38.39
		c0,21.21,17.189,38.4,38.39,38.4c21.21,0,38.4-17.19,38.4-38.4C76.79,17.189,59.6,0,38.39,0L38.39,0z M33.301,58.159V18.63
		l13.66,19.76L33.301,58.159L33.301,58.159z"/>
</g>
</svg>
