<?xml version="1.0" encoding="utf-8"?>
<!-- Generator: Adobe Illustrator 16.0.0, SVG Export Plug-In . SVG Version: 6.00 Build 0)  -->
<!DOCTYPE svg PUBLIC "-//W3C//DTD SVG 1.1//EN" "http://www.w3.org/Graphics/SVG/1.1/DTD/svg11.dtd">
<svg version="1.1" id="Calque_1" xmlns="http://www.w3.org/2000/svg" xmlns:xlink="http://www.w3.org/1999/xlink" x="0px" y="0px"
	 width="77.231px" height="72.011px" viewBox="0 0 77.231 72.011" enable-background="new 0 0 77.231 72.011" xml:space="preserve">
<g>
	<path fill="#FFFFFF" stroke="#FFFFFF" stroke-miterlimit="10" d="M73.135,14.192C69.463,7.707,70.574,3.273,61.271,4.099
		c-6.23,0.553-8.459,15.347-9.496,15.614c-0.412-4.65-0.21-9.357-0.622-14.01c-0.85-1.604-4.514-1.015-6.095-0.876l-0.303,0.559
		c0.254,7.851,0.412,15.621,1.104,23.433c0.794,8.955,0.446,18.006,1.24,26.959c0.843,1.516,1.74,2.676,3.673,2.504
		c3.948-0.349,1.138-10.097,0.912-12.642c-0.085-0.966-0.312-2.538,0.599-3.238c1.398-1.184,3.99-0.884,5.7-1.566
		c9.806-4.142,16.368-13.923,15.419-24.63L73.135,14.192z M68.967,9.077l-0.409,0.392l-0.42-0.759
		C68.489,8.679,68.927,8.641,68.967,9.077z M68.817,11.392l0.382,0.32l-0.406,0.39l-0.464-0.225L68.817,11.392z M68.962,14.032
		l0.471,0.313l-0.32,0.383l-0.558-0.305L68.962,14.032z M63.822,4.935c0.703-0.063,0.844,0.545,0.892,1.071
		c-0.527,0.046-1.149,0.014-1.213-0.688L63.822,4.935z M61.54,5.137l0.557,0.304l-0.391,0.567l-0.478-0.4L61.54,5.137z
		 M51.35,23.909l-0.03-0.351c0.183,0.071,0.191,0.159,0.207,0.334L51.35,23.909z M51.729,26.175l0.03,0.351l-0.352,0.031
		l-0.03-0.352L51.729,26.175z M50.257,13.568l-0.215-0.424l0.152-0.279l0.382,0.321L50.257,13.568z M50.127,11.102l-0.303-0.417
		l0.328-0.291l0.39,0.405L50.127,11.102z M50.19,7.824c0.054,0.615-0.288,0.732-0.814,0.779C49.319,7.991,49.663,7.87,50.19,7.824z
		 M48.39,6.48l0.39,0.407l-0.312,0.471l-0.398-0.496L48.39,6.48z M48.464,9.304l0.382,0.32l-0.319,0.382l-0.382-0.319L48.464,9.304z
		 M47.196,8.001l0.487,0.487l-0.321,0.384l-0.389-0.41L47.196,8.001z M47.417,10.457l0.668,0.561l-0.416,0.303l-0.661-0.473
		L47.417,10.457z M48.847,26.606l0.463,0.227l-0.384,0.654l-0.479-0.403L48.847,26.606z M48.415,23.726l0.646,0.298l-0.24,0.286
		L48.415,23.726z M48.977,29.074l0.375,0.23l-0.328,0.294l-0.375-0.231L48.977,29.074z M49.299,31.697l0.478,0.401l-0.399,0.478
		l-0.486-0.487L49.299,31.697z M49.351,37.267l0.759-0.422c0.021,0.263,0.069,0.789-0.28,0.822l-0.089,0.007l-0.384-0.318
		L49.351,37.267z M46.538,17.523l0.584-0.406c0.024,0.265,0.069,0.791-0.281,0.822L46.538,17.523z M47.042,20.221
		c0,0,0.008,0.089-0.079,0.096c-0.087,0.01-0.096-0.079-0.096-0.079s-0.007-0.089,0.08-0.094
		C47.034,20.135,47.042,20.221,47.042,20.221z M47.056,25.352l0.613-0.054c0.04,0.437-0.122,0.63-0.56,0.667L47.056,25.352z
		 M47.552,27.961l0.463,0.226l-0.488,0.484l-0.39-0.407L47.552,27.961z M48.444,39.026l-0.046-0.524l0.438-0.04
		C48.861,38.726,48.796,38.996,48.444,39.026z M49.188,41.438l-0.32,0.383c-0.351,0.031-0.484-0.487-0.508-0.751
		C48.623,41.048,49.159,41.088,49.188,41.438z M49.091,56.309l-0.564-0.393l0.496-0.398L49.091,56.309z M48.771,53.684l-0.088,0.008
		l-0.381-0.322l0.406-0.389l0.296,0.328C49.019,53.483,48.946,53.667,48.771,53.684z M48.433,50.882l-0.373-0.233l0.328-0.294
		l0.373,0.233L48.433,50.882z M47.842,48.192l0.591-0.319c0.023,0.265-0.025,0.71-0.288,0.736L47.842,48.192z M47.815,45.896
		l-0.055-0.614l0.087-0.008l0.454,0.136L47.815,45.896z M47.836,43.15l-0.477-0.399l0.76-0.422L47.836,43.15z M47.382,40.006
		c0,0-0.008-0.087,0.08-0.095c0.087-0.009,0.096,0.08,0.096,0.08s0.007,0.088-0.081,0.096
		C47.391,40.094,47.382,40.006,47.382,40.006z M47.122,35.075l-0.471-0.313l0.423-0.214l0.472,0.311L47.122,35.075z M50.056,57.197
		l0.136-0.456l0.088-0.008c0.352-0.031,0.398,0.496,0.42,0.759L50.056,57.197z M49.949,54.994l-0.089,0.01l-0.383-0.322l0.482-0.573
		l0.557,0.305L49.949,54.994z M49.611,52.192l-0.046-0.526l0.527-0.046l0.045,0.526L49.611,52.192z M49.832,49.697l-0.478-0.4
		l0.313-0.47l0.383,0.319L49.832,49.697z M49.496,46.896l-0.39-0.407l0.328-0.293l0.382,0.317L49.496,46.896z M49.262,44.261
		l-0.564-0.391l0.328-0.294l0.565,0.392L49.262,44.261z M48.097,31.098l-0.375-0.232l0.239-0.286l0.47,0.31L48.097,31.098z
		 M47.243,23.478l-0.055-0.615l0.176-0.016l0.374,0.231L47.243,23.478z M46.527,15.402l-0.055-0.614l0.087-0.007l0.456,0.135
		L46.527,15.402z M46.461,12.666l-0.391-0.408l0.138-0.455l0.574,0.48L46.461,12.666z M46.053,10.048l-0.047-0.526l0.087-0.008
		c0.264-0.024,0.383,0.32,0.397,0.494L46.053,10.048z M45.995,7.399L45.604,6.99l0.24-0.284l0.479,0.398L45.995,7.399z M51.55,56.09
		l-0.352,0.032l-0.031-0.353l0.354-0.032L51.55,56.09z M51.475,53.267l-0.349,0.031l-0.033-0.353l0.353-0.031L51.475,53.267z
		 M50.715,50.68l-0.046-0.527l0.089-0.007l0.286,0.239L50.715,50.68z M50.849,48.191l-0.087,0.007l-0.478-0.399l0.313-0.47
		l0.573,0.48L50.849,48.191z M50.631,45.734l-0.558-0.306l0.392-0.565l0.479,0.4L50.631,45.734z M50.311,43.11l-0.479-0.402
		l0.4-0.479l0.47,0.313L50.311,43.11z M50.644,39.896l-0.495,0.396l-0.574-0.479l0.496-0.397c0.264-0.023,0.543,0.13,0.566,0.393
		L50.644,39.896z M48.604,21.854l-0.662-0.473l0.407-0.391l0.654,0.385L48.604,21.854z M48.281,19.229l-0.559-0.306l0.567-0.582
		l0.48,0.4L48.281,19.229z M47.475,16.113l0.496-0.396l0.39,0.407l-0.399,0.478L47.475,16.113z M47.901,13.953l-0.652-0.384
		l1.11-0.453C48.398,13.556,48.428,13.908,47.901,13.953z M50.962,33.495l-0.614,0.057c-0.04-0.439,0.12-0.63,0.56-0.67
		L50.962,33.495z M48.836,17.498l0.313-0.469l0.558,0.304l-0.392,0.564L48.836,17.498z M50.729,30.864l-0.353,0.031l-0.03-0.352
		l0.352-0.031L50.729,30.864z M50.319,28.247l-0.383-0.321l0.306-0.557l0.558,0.304L50.319,28.247z M49.956,23.146l-0.485-0.486
		l0.319-0.382l0.574,0.48L49.956,23.146z M49.627,20.436l-0.055-0.615l0.089-0.009l0.454,0.139L49.627,20.436z M49.152,15.081
		l-0.397-0.495l0.32-0.383l0.558,0.305L49.152,15.081z M49.007,12.44l-0.66-0.473l0.479-0.573l0.574,0.479L49.007,12.44z
		 M61.771,37.669l-0.033-0.351l0.44-0.039L61.771,37.669z M64.36,34.965l-0.558-0.308l0.407-0.39l0.472,0.313L64.36,34.965z
		 M65.567,33.619l-0.478-0.402l0.312-0.47l0.576,0.481L65.567,33.619z M66.687,32.28l-0.659-0.474l0.583-0.405l0.646,0.297
		L66.687,32.28z M66.112,29.767c-0.023-0.264,0.017-0.8,0.368-0.83l0.382,0.319C66.894,29.606,66.375,29.742,66.112,29.767z
		 M67.777,30.592l-0.406-0.584l0.646,0.297L67.777,30.592z M52.607,40.074l-0.573-0.479c-0.047-0.528-0.322-2.628-0.266-2.986
		c0.749-6.524,0.654-28.54,10.835-29.443c3.072-0.272,3.95,6.638,4.13,8.656C67.598,25.564,64.104,39.055,52.607,40.074z
		 M65.619,7.253l-0.39-0.409l0.313-0.47l0.573,0.479L65.619,7.253z M67.205,8.173l-0.66-0.472l0.319-0.383l0.748,0.465L67.205,8.173
		z M69.84,24.924l-0.017-0.176L70,24.732c0.175-0.015,0.271,0.063,0.367,0.145L69.84,24.924z M69.404,20.008l-0.046-0.526
		l0.438-0.038C69.821,19.707,69.755,19.977,69.404,20.008z M69.259,17.367l-0.088,0.009l-0.382-0.32l0.566-0.581l0.089-0.008
		l0.383,0.319L69.259,17.367z M70.917,21.112l-0.205-0.336l0.144-0.364l0.383,0.317L70.917,21.112z M70.772,18.472l-0.479-0.401
		l0.33-0.292l0.372,0.231L70.772,18.472z M70.466,16.021l-0.564-0.39l0.574-0.495l0.662,0.473L70.466,16.021z M69.827,12.804
		l0.416-0.302l0.47,0.314l-0.408,0.389L69.827,12.804z M70.263,10.732l-0.662-0.473l0.409-0.39l0.653,0.385L70.263,10.732z
		 M71.569,14.509l-0.381-0.32l0.32-0.382l0.381,0.32L71.569,14.509z"/>
	<g>
		<path fill="#FFFFFF" d="M12.161,13.921c-8.32,4.326-11.572,14.617-7.245,22.938c4.166,8.011,33.735,31.429,34.729,31.924
			l0.931,0.456c0.112,0.053,0.235,0.052,0.346-0.005c0.106-0.054,0.181-0.158,0.197-0.279l0.162-1.022
			c0.169-1.099-2.014-38.755-6.181-46.767C30.773,12.845,20.482,9.596,12.161,13.921L12.161,13.921z M17.198,23.608
			c2.979-1.55,6.665-0.388,8.215,2.595c1.548,2.981,0.384,6.664-2.595,8.214c-2.982,1.553-6.668,0.388-8.219-2.594
			C13.048,28.842,14.216,25.157,17.198,23.608L17.198,23.608z M17.198,23.608"/>
	</g>
</g>
</svg>
