<?xml version="1.0" encoding="utf-8"?>
<!-- Generator: Adobe Illustrator 16.0.0, SVG Export Plug-In . SVG Version: 6.00 Build 0)  -->
<!DOCTYPE svg PUBLIC "-//W3C//DTD SVG 1.1//EN" "http://www.w3.org/Graphics/SVG/1.1/DTD/svg11.dtd">
<svg version="1.1" id="Calque_1" xmlns="http://www.w3.org/2000/svg" xmlns:xlink="http://www.w3.org/1999/xlink" x="0px" y="0px"
	 width="595.28px" height="841.89px" viewBox="0 0 595.28 841.89" enable-background="new 0 0 595.28 841.89" xml:space="preserve">
<g id="route">
	<g>
		<path fill="none" stroke="#737F98" stroke-width="6" stroke-miterlimit="10" d="M229.08,641.766
			c-21.117-70.396,109.232-66.874,109.815-135.157c0.703-82.362-104.888-88.696-111.224-145.014
			c-6.335-56.318,99.673-39.849,87.994-116.154c-10.559-68.986-73.21-76.025-73.21-76.025
			c-64.763,5.632-65.467-54.908-23.934-64.059s33.79-16.053,33.79-16.053"/>
		<path fill="none" stroke="#F2F2F2" stroke-width="2" stroke-linecap="round" stroke-miterlimit="10" stroke-dasharray="12" d="
			M229.08,641.766c-21.117-70.396,109.232-66.874,109.815-135.157c0.703-82.362-104.888-88.696-111.224-145.014
			c-6.335-56.318,99.673-39.849,87.994-116.154c-10.559-68.986-73.21-76.025-73.21-76.025
			c-64.763,5.632-65.467-54.908-23.934-64.059s33.79-16.053,33.79-16.053"/>
	</g>
</g>
<g>
	<path fill="#FFFFFF" stroke="#FFFFFF" stroke-miterlimit="10" d="M299.187,48.467c-4.264-7.533-2.974-12.681-13.778-11.724
		c-7.237,0.642-9.825,17.823-11.029,18.136c-0.479-5.402-0.244-10.868-0.724-16.272c-0.986-1.863-5.241-1.179-7.077-1.017
		l-0.354,0.647c0.295,9.119,0.479,18.144,1.282,27.217c0.922,10.399,0.519,20.913,1.439,31.312c0.979,1.761,2.021,3.107,4.266,2.908
		c4.587-0.405,1.322-11.727,1.062-14.683c-0.101-1.121-0.363-2.947,0.694-3.76c1.624-1.376,4.634-1.027,6.619-1.82
		c11.389-4.811,19.012-16.172,17.91-28.607L299.187,48.467z M294.345,42.525l-0.473,0.454l-0.489-0.881
		C293.791,42.062,294.301,42.017,294.345,42.525z M294.173,45.213l0.443,0.372l-0.473,0.453l-0.538-0.261L294.173,45.213z
		 M294.342,48.28l0.546,0.362l-0.371,0.445l-0.646-0.354L294.342,48.28z M288.371,37.714c0.815-0.074,0.979,0.633,1.035,1.244
		c-0.611,0.054-1.334,0.016-1.407-0.8L288.371,37.714z M285.72,37.948l0.647,0.354l-0.455,0.657l-0.555-0.464L285.72,37.948z
		 M273.886,59.753l-0.036-0.408c0.214,0.083,0.224,0.185,0.24,0.389L273.886,59.753z M274.324,62.383l0.036,0.407l-0.408,0.036
		l-0.036-0.407L274.324,62.383z M272.615,47.741l-0.248-0.492l0.176-0.324l0.444,0.373L272.615,47.741z M272.465,44.877
		l-0.352-0.483l0.381-0.341l0.453,0.473L272.465,44.877z M272.538,41.069c0.063,0.714-0.335,0.852-0.946,0.905
		C271.527,41.262,271.926,41.124,272.538,41.069z M270.447,39.508l0.453,0.474l-0.362,0.548l-0.464-0.577L270.447,39.508z
		 M270.533,42.788l0.442,0.372l-0.37,0.443l-0.443-0.37L270.533,42.788z M269.062,41.275l0.564,0.565l-0.372,0.445l-0.452-0.476
		L269.062,41.275z M269.316,44.128l0.776,0.651l-0.481,0.352l-0.77-0.55L269.316,44.128z M270.978,62.885l0.537,0.262l-0.445,0.76
		l-0.556-0.468L270.978,62.885z M270.476,59.539l0.75,0.346l-0.278,0.332L270.476,59.539z M271.129,65.751l0.437,0.268l-0.382,0.343
		l-0.436-0.269L271.129,65.751z M271.503,68.798l0.556,0.466l-0.465,0.555l-0.563-0.567L271.503,68.798z M271.562,75.266l0.882-0.49
		c0.026,0.306,0.082,0.917-0.325,0.954l-0.104,0.009l-0.444-0.371L271.562,75.266z M268.297,52.335l0.678-0.472
		c0.027,0.307,0.081,0.919-0.326,0.955L268.297,52.335z M268.883,55.467c0,0,0.009,0.104-0.093,0.111
		c-0.102,0.011-0.11-0.092-0.11-0.092s-0.01-0.103,0.093-0.109C268.873,55.368,268.883,55.467,268.883,55.467z M268.896,61.426
		l0.716-0.063c0.045,0.508-0.144,0.731-0.651,0.775L268.896,61.426z M269.474,64.458l0.537,0.262l-0.566,0.563l-0.452-0.473
		L269.474,64.458z M270.511,77.311l-0.055-0.61l0.51-0.046C270.994,76.96,270.919,77.275,270.511,77.311z M271.375,80.11
		l-0.371,0.443c-0.408,0.037-0.563-0.564-0.591-0.87C270.719,79.656,271.34,79.705,271.375,80.11z M271.261,97.382l-0.655-0.455
		l0.575-0.462L271.261,97.382z M270.889,94.334l-0.103,0.01l-0.442-0.374l0.474-0.453l0.343,0.382
		C271.178,94.102,271.094,94.315,270.889,94.334z M270.498,91.08l-0.435-0.271l0.381-0.341l0.435,0.271L270.498,91.08z
		 M269.81,87.956l0.688-0.37c0.026,0.307-0.03,0.824-0.336,0.854L269.81,87.956z M269.779,85.288l-0.063-0.714l0.103-0.009
		l0.526,0.158L269.779,85.288z M269.804,82.099l-0.555-0.464l0.883-0.489L269.804,82.099z M269.276,78.447
		c0,0-0.01-0.102,0.093-0.109c0.102-0.01,0.111,0.093,0.111,0.093s0.009,0.102-0.095,0.111
		C269.285,78.55,269.276,78.447,269.276,78.447z M268.974,72.721l-0.547-0.364l0.492-0.248l0.547,0.361L268.974,72.721z
		 M272.381,98.414l0.159-0.529l0.103-0.009c0.408-0.036,0.461,0.576,0.488,0.882L272.381,98.414z M272.258,95.855l-0.102,0.011
		l-0.445-0.373l0.559-0.667l0.647,0.355L272.258,95.855z M271.866,92.602l-0.055-0.61l0.611-0.055l0.055,0.612L271.866,92.602z
		 M272.123,89.704l-0.555-0.465l0.361-0.546l0.444,0.371L272.123,89.704z M271.731,86.45l-0.452-0.474l0.381-0.341l0.442,0.37
		L271.731,86.45z M271.461,83.39l-0.656-0.455l0.381-0.342l0.656,0.455L271.461,83.39z M270.105,68.1l-0.436-0.27l0.277-0.333
		l0.547,0.361L270.105,68.1z M269.115,59.25l-0.063-0.714l0.204-0.018l0.437,0.269L269.115,59.25z M268.285,49.871l-0.064-0.714
		l0.103-0.008l0.527,0.157L268.285,49.871z M268.208,46.693l-0.454-0.475l0.16-0.527l0.665,0.558L268.208,46.693z M267.732,43.652
		l-0.056-0.612l0.103-0.007c0.307-0.028,0.443,0.37,0.463,0.574L267.732,43.652z M267.666,40.577l-0.453-0.475l0.277-0.332
		l0.557,0.464L267.666,40.577z M274.117,97.129l-0.408,0.037l-0.037-0.409l0.41-0.037L274.117,97.129z M274.031,93.848l-0.407,0.037
		l-0.036-0.409l0.408-0.037L274.031,93.848z M273.148,90.845l-0.055-0.613l0.104-0.008l0.332,0.278L273.148,90.845z M273.304,87.955
		l-0.103,0.009l-0.557-0.465l0.363-0.546l0.666,0.558L273.304,87.955z M273.051,85.1l-0.647-0.354l0.456-0.657l0.556,0.466
		L273.051,85.1z M272.678,82.051l-0.555-0.466l0.465-0.556l0.545,0.364L272.678,82.051z M273.065,78.318l-0.575,0.461l-0.666-0.558
		l0.575-0.46c0.307-0.028,0.631,0.149,0.656,0.455L273.065,78.318z M270.695,57.364l-0.77-0.549l0.475-0.454l0.759,0.446
		L270.695,57.364z M270.321,54.314l-0.648-0.354l0.659-0.674l0.557,0.464L270.321,54.314z M269.384,50.697l0.577-0.46l0.452,0.473
		l-0.465,0.555L269.384,50.697z M269.881,48.188l-0.759-0.446l1.29-0.525C270.457,47.725,270.492,48.134,269.881,48.188z
		 M273.434,70.886l-0.714,0.064c-0.045-0.51,0.142-0.731,0.65-0.776L273.434,70.886z M270.965,52.305l0.363-0.546l0.647,0.354
		l-0.456,0.656L270.965,52.305z M273.164,67.829l-0.408,0.037l-0.036-0.408l0.408-0.037L273.164,67.829z M272.688,64.789
		l-0.444-0.372l0.354-0.646l0.648,0.353L272.688,64.789z M272.265,58.866l-0.563-0.565l0.372-0.443l0.666,0.557L272.265,58.866z
		 M271.884,55.716l-0.063-0.713l0.104-0.01l0.527,0.16L271.884,55.716z M271.333,49.498l-0.462-0.575l0.371-0.443l0.647,0.353
		L271.333,49.498z M271.164,46.431l-0.768-0.55l0.557-0.665l0.666,0.557L271.164,46.431z M285.988,75.733l-0.037-0.407l0.51-0.045
		L285.988,75.733z M288.998,72.592l-0.648-0.356l0.474-0.452l0.547,0.363L288.998,72.592z M290.399,71.028l-0.556-0.466l0.362-0.545
		l0.666,0.559L290.399,71.028z M291.699,69.473l-0.768-0.548l0.678-0.473l0.75,0.346L291.699,69.473z M291.03,66.554
		c-0.026-0.305,0.021-0.928,0.429-0.964l0.443,0.371C291.939,66.37,291.336,66.527,291.03,66.554z M292.965,67.512l-0.471-0.677
		l0.749,0.346L292.965,67.512z M275.344,78.527l-0.665-0.558c-0.055-0.612-0.374-3.05-0.308-3.467
		c0.869-7.577,0.759-33.148,12.585-34.198c3.568-0.315,4.588,7.71,4.797,10.055C292.756,61.675,288.699,77.342,275.344,78.527z
		 M290.459,40.406l-0.453-0.475l0.363-0.546l0.666,0.558L290.459,40.406z M292.301,41.474l-0.768-0.548l0.371-0.444l0.869,0.539
		L292.301,41.474z M295.36,60.929l-0.02-0.203l0.205-0.021c0.203-0.016,0.314,0.075,0.426,0.168L295.36,60.929z M294.854,55.22
		l-0.054-0.61l0.51-0.045C295.338,54.871,295.261,55.185,294.854,55.22z M294.685,52.153l-0.102,0.011l-0.444-0.373l0.659-0.674
		l0.103-0.009l0.444,0.371L294.685,52.153z M296.612,56.504l-0.239-0.391l0.167-0.424l0.444,0.369L296.612,56.504z M296.443,53.437
		l-0.557-0.465l0.382-0.341l0.435,0.27L296.443,53.437z M296.088,50.591l-0.656-0.455l0.668-0.573l0.77,0.549L296.088,50.591z
		 M295.345,46.854l0.483-0.351l0.546,0.364l-0.474,0.452L295.345,46.854z M295.851,44.447l-0.768-0.548l0.475-0.453l0.759,0.447
		L295.851,44.447z M297.371,48.834l-0.443-0.372l0.371-0.444l0.443,0.373L297.371,48.834z"/>
	<path fill="#FFFFFF" stroke="#FFFFFF" stroke-miterlimit="10" d="M365.957,50.713l-2.649,0.235
		c-7.449,5.204-8.951,10.273-11.065,18.885c-0.093,0.111-0.286,0.262-0.396,0.168c-1.661-2.524,0.531-17.175-3.953-16.778
		l-3.67,0.326l-0.363,0.528c-0.319,1.52,0.19,12.392,0.652,21.27c-1.453,7.737-4.053,19.785-8.932,20.218
		c-2.65,0.234-3.728-3.349-3.908-5.388l-0.723-8.154c-0.496-5.607,0.965-11.593,0.467-17.2c-0.324-3.669-2.217-3.81-5.275-3.539
		c-4.118,2.217-3.289,30.294-11.751,31.044c-4.28,0.379-4.568-6.273-4.822-9.129c-1.039-11.724,4.071-24.709,17.223-25.876
		c2.141-0.189,4.175,0.759,6.324,0.672l0.8-1.406c-0.308-3.467-6.044-3.266-8.489-3.049c-13.149,1.165-25.021,14.445-23.838,27.799
		c0.533,6.015,4.396,14.815,11.633,14.175c6.219-0.552,8.556-8.978,10.38-13.866l0.577-0.462c0.222,0.185,0.451,0.474,0.582,0.771
		c0.74,8.359-0.263,13.276,8.197,17.148l1.131,0.004c5.677-0.503,8.867-8.635,10.813-16.547c0.103,1.909,0.332,3.378,0.362,4.151
		l-0.183,0.839l0.379,4.281c0.108,1.224,4.07,1.283,5.089,1.194l0.854-1.104c0.267-7.422,2.591-36.394,11.969-37.226
		c1.325-0.118,1.824,1.07,1.923,2.192c0.353,3.976-4.36,6.55-4.063,9.915c0.099,1.122,1.64,1.088,2.457,1.015
		c5.604-0.496,5.527-5.422,7.89-9.535l-0.101-1.121C371.152,53.492,369.074,52.256,365.957,50.713z M324.92,54.817l0.019,0.202
		l-0.224-0.186L324.92,54.817z M315.59,58.521l0.188-0.221c0.203-0.02,0.424,0.167,0.441,0.369c0.035,0.409-0.361,0.546-0.669,0.574
		L315.59,58.521z M309.226,70.18l-0.223-0.187l0.203-0.019L309.226,70.18z M311.687,63.181l0.444,0.371
		c0.036,0.408-0.565,0.563-0.873,0.591C311.232,63.837,311.281,63.217,311.687,63.181z M310.015,65.179l0.307-0.027l0.546,0.361
		c0.037,0.409-0.464,0.555-0.771,0.582L310.015,65.179z M308.817,66.724l0.102-0.009l0.444,0.37l0.008,0.102
		c0.019,0.205-0.176,0.325-0.38,0.342l-0.443-0.37L308.817,66.724z M305,74.664l0.564,0.566l-0.476,0.454l-0.545-0.363L305,74.664z
		 M305.271,77.723c0.611-0.055,0.648,0.353,0.693,0.863l-0.408,0.034c-0.306,0.027-0.723-0.036-0.76-0.443L305.271,77.723z
		 M305.44,80.79l0.666,0.559l-0.475,0.453l-0.555-0.466L305.44,80.79z M305.711,83.847l0.666,0.558l-0.557,0.666l-0.462-0.575
		L305.711,83.847z M303.785,79.499l0.537,0.26l-0.465,0.556l-0.343-0.38L303.785,79.499z M304.205,86.55l0.326-0.954l0.555,0.466
		L304.205,86.55z M304.488,83.957l-0.685-0.762l0.354-0.647l0.657,0.455L304.488,83.957z M306.65,90.958l-0.556-0.464l0.262-0.538
		l0.554,0.465L306.65,90.958z M306.072,87.926l-0.443-0.372c-0.045-0.511,0.67-0.573,0.975-0.6l0.203-0.019
		C306.853,87.447,306.685,87.873,306.072,87.926z M306.148,70.248l0.224,0.185l-0.204,0.018L306.148,70.248z M307.168,79.405
		l-0.252,0.637l-0.463-0.574L307.168,79.405z M306.31,76.706l0.364-0.545l0.452,0.473l-0.483,0.351L306.31,76.706z M308.047,91.656
		l-0.203,0.018l0.187-0.221L308.047,91.656z M307.728,89.217l-0.352-0.482l0.279-0.332l0.342,0.38L307.728,89.217z M307.031,85.992
		l0.354-0.648l0.462,0.577L307.031,85.992z M307.39,83.084l-0.547-0.362l0.476-0.454l0.555,0.466L307.39,83.084z M306.576,73.909
		l-0.545-0.362l0.558-0.665l0.656,0.454L306.576,73.909z M326.453,73.277c0,0,0.102-0.011,0.11,0.091
		c0.009,0.104-0.094,0.112-0.094,0.112s-0.102,0.011-0.108-0.093C326.351,73.286,326.453,73.277,326.453,73.277z M327.25,85.74
		c-0.102,0.01-0.111-0.093-0.111-0.093s-0.008-0.103,0.094-0.11c0.103-0.01,0.111,0.093,0.111,0.093S327.351,85.731,327.25,85.74z
		 M328.209,91.923c-0.213-0.083-0.342-0.381-0.36-0.585l0.307-0.026L328.209,91.923z M327.412,82.952
		c-0.109-0.094-0.221-0.187-0.229-0.287c-0.009-0.102,0.084-0.213,0.178-0.323l0.239,0.389L327.412,82.952z M328.642,80.582
		c0.214,0.085,0.222,0.188,0.24,0.39l-0.408,0.036C328.456,80.804,328.447,80.703,328.642,80.582z M329.015,87.125l-0.053-0.611
		l0.203-0.019c0.306-0.025,0.537,0.262,0.563,0.567L329.015,87.125z M328.672,67.016l-0.018-0.203l0.203-0.017
		c0.203-0.019,0.313,0.074,0.426,0.167L328.672,67.016z M346.511,88.657l-0.203,0.017l-0.018-0.203l0.203-0.018L346.511,88.657z
		 M346.94,63.343l0.665,0.558l-0.539,0.869l-0.472-0.677L346.94,63.343z M346.501,60.711l0.371-0.444l0.454,0.476l-0.381,0.342
		L346.501,60.711z M347.857,66.756l-0.371,0.444l-0.443-0.373l0.373-0.442L347.857,66.756z M345.15,55.9l0.487,0.881l-0.953-0.327
		L345.15,55.9z M347.933,90.79l-0.674-0.657l0.566-0.565l0.852,0.335L347.933,90.79z M347.747,87.521l-0.545-0.363l0.557-0.667
		l0.667,0.559L347.747,87.521z M347.289,81.19l-0.648-0.354l0.56-0.665l0.655,0.455L347.289,81.19z M346.459,75.098
		c0.01-0.06,0.021-0.116,0.031-0.177l0.184-0.664c0.324,0.177,0.455,0.476,0.582,0.771L346.459,75.098z M346.98,77.725l0.02,0.201
		l-0.204,0.021L346.98,77.725z M346.203,68.958l-0.229-0.287l0.38-0.342l0.427,0.166L346.203,68.958z M346.053,66.093l-0.545-0.361
		l0.455-0.658l0.547,0.361L346.053,66.093z M345.238,62.673c0.092-0.111,0.186-0.222,0.286-0.23
		c0.102-0.009,0.214,0.084,0.323,0.176c-0.093,0.112-0.187,0.223-0.288,0.232C345.459,62.858,345.347,62.765,345.238,62.673z
		 M345.427,60.19l-0.462-0.576l0.456-0.657l0.564,0.567L345.427,60.19z M349.408,91.173c-0.104,0.01-0.112-0.093-0.112-0.093
		s-0.009-0.102,0.093-0.109c0.103-0.01,0.111,0.093,0.111,0.093S349.509,91.167,349.408,91.173z M348.826,85.779l-0.342-0.381
		l0.27-0.434l0.342,0.381L348.826,85.779z M347.687,72.936l0.529,0.159l-0.169,0.425C347.835,73.437,347.705,73.139,347.687,72.936z
		 M348.572,79.435l-0.021-0.205l0.429,0.168L348.572,79.435z M347.758,70.258l-0.358-0.586l0.814-0.071L347.758,70.258z
		 M346.097,58.486c-0.035-0.407-0.006-1.232,0.504-1.276l0.666,0.558C347.312,58.277,346.506,58.451,346.097,58.486z
		 M349.947,77.563c0,0-0.103,0.01-0.111-0.092c-0.009-0.104,0.093-0.11,0.093-0.11s0.104-0.01,0.111,0.094
		C350.049,77.554,349.947,77.563,349.947,77.563z M349.787,74.599c-0.203,0.019-0.307,0.026-0.426-0.169
		c0.084-0.213,0.186-0.223,0.39-0.239L349.787,74.599z M349.533,71.744l-0.222-0.186l0.187-0.222L349.533,71.744z M349.041,68.5
		l-0.018-0.204l0.405-0.037C349.347,68.473,349.244,68.482,349.041,68.5z M348.685,65.655l-0.545-0.362l0.475-0.454l0.545,0.362
		L348.685,65.655z M348.347,59.521l-0.342-0.381l0.168-0.426c0.204-0.019,0.424,0.168,0.443,0.37L348.347,59.521z M348.195,56.658
		l-0.443-0.373l0.373-0.443c0.203-0.018,0.425,0.168,0.442,0.371C348.587,56.417,348.4,56.639,348.195,56.658z M351.377,76.305
		l-0.656-0.453c-0.036-0.408,0.574-0.463,0.779-0.48l0.306-0.027L351.377,76.305z M366.288,54.436l0.406-0.035
		c-0.082,0.212-0.186,0.223-0.389,0.24L366.288,54.436z M365.959,65.769l-0.557-0.466l0.362-0.545l0.655,0.454L365.959,65.769z
		 M367.138,64.017l-0.657-0.452l0.565-0.566l0.655,0.456L367.138,64.017z M366.988,61.156l-0.354-0.483l0.262-0.536l0.556,0.465
		L366.988,61.156z M367.842,55.737l0.406-0.035l0.037,0.408l-0.408,0.035L367.842,55.737z M368.353,62.679l-0.563-0.568l0.557-0.665
		l0.677,0.658L368.353,62.679z M368.251,59.194l-0.332-0.278l0.379-0.342l0.427,0.167L368.251,59.194z M369.618,57.222l-0.204,0.02
		l-0.018-0.203l0.202-0.019L369.618,57.222z"/>
	<path fill="#FFFFFF" stroke="#FFFFFF" stroke-miterlimit="10" d="M382.355,39.863c2.142-0.191,3.896-1.272,3.688-3.616
		c-0.208-2.345-2.777-4.687-5.123-4.478c-2.037,0.182-3.703,2.281-3.521,4.319C377.606,38.433,380.115,40.061,382.355,39.863z
		 M382.156,34.126l0.204-0.019l0.037,0.408l-0.206,0.018L382.156,34.126z M382.928,37.036l-0.345,0.751l-0.332-0.279L382.928,37.036
		z"/>
	<path fill="#FFFFFF" stroke="#FFFFFF" stroke-miterlimit="10" d="M418.439,50.532c-0.309-3.465-5.203-4.778-8.058-4.524
		c-12.438,1.102-11.455,13.139-13.17,14.316l0.254,2.856c1.027,1.336,1.386,3.004,2.242,4.402
		c-0.963,5.84-3.633,22.435-9.444,22.949c-3.468,0.306-3.976-5.299-4.192-7.745c-0.38-4.281-0.624-9.294-0.596-13.612
		c0.021-5.55,0.422-11.441-0.067-16.946c-0.288-3.263-2.58-3.574-5.228-3.34c-0.92,0.082-1.307,6.179-1.344,6.901
		c-0.332,7.837-0.313,16.158,0.381,24.007c0.335,3.773,1.387,9.842,4.197,12.57c1.006,0.938,2.563,1.119,3.459,1.949l1.225-0.107
		c7.238-0.642,10.188-10.25,11.509-16.222c0.221-1.195,1.094-5.312,1.672-8.495c4.625,4.53,11.485,7.457,12.137,14.773
		c0.56,6.319-6.439,11.975-11.671,14.391c0.34,1.511,3.341,1.761,4.564,1.651l1.316-0.219c7.295-5.784,12.293-7.356,11.334-18.163
		c-0.975-11.01-15.165-13.45-16.124-24.256c-0.389-4.384,2.226-8.521,6.815-8.928c1.832-0.161,3.332,0.528,3.512,2.566
		c0.183,2.039-1.738,3.545-1.66,5.593C414.665,56.621,418.755,54.102,418.439,50.532z M380.525,66.736
		c0.102-0.008,0.11,0.093,0.11,0.093s0.01,0.102-0.092,0.11c-0.102,0.011-0.111-0.092-0.111-0.092S380.425,66.746,380.525,66.736z
		 M380.799,69.795l0.23,0.288c0.018,0.204-0.279,0.332-0.484,0.35C380.528,70.23,380.603,69.915,380.799,69.795z M381.765,76.08
		l-0.475,0.452l-0.487-0.882C381.211,75.613,381.72,75.569,381.765,76.08z M381.979,79.656l-0.747-0.345l0.277-0.333L381.979,79.656
		z M382.023,85.921l-0.241-0.391c-0.028-0.307,0.361-0.546,0.669-0.574C382.486,85.365,382.531,85.874,382.023,85.921z
		 M382.056,82.835c-0.307,0.026-0.45-0.474-0.479-0.781l0.815-0.071C382.419,82.288,382.361,82.808,382.056,82.835z M382.586,57.513
		l0.408-0.037l-0.392,0.24L382.586,57.513z M382.838,60.365l0.408-0.035l0.037,0.409l-0.408,0.036L382.838,60.365z M383.144,80.066
		l0.455,0.474l0.011,0.102l-0.373,0.443l-0.443-0.37L383.144,80.066z M382.724,74.145l0.538,0.261l-0.762,0.684l-0.082-0.918
		L382.724,74.145z M381.353,62.142l0.185-0.222l0.037,0.407L381.353,62.142z M381.404,59.261c0,0-0.008-0.103,0.094-0.111
		c0.102-0.01,0.111,0.092,0.111,0.092s0.008,0.104-0.095,0.111C381.414,59.365,381.404,59.261,381.404,59.261z M384.237,90.039
		c-0.104,0.008-0.112-0.095-0.112-0.095s-0.01-0.101,0.092-0.111c0.104-0.008,0.111,0.095,0.111,0.095
		S384.338,90.029,384.237,90.039z M383.982,87.185l-0.441-0.371c-0.037-0.408,0.565-0.565,0.87-0.593
		C384.438,86.527,384.39,87.147,383.982,87.185z M383.295,84.06l-0.063-0.712l0.918-0.082
		C384.205,83.877,383.804,84.014,383.295,84.06z M381.271,56.603c-0.406,0.036-0.556-0.465-0.581-0.772l1.019-0.089
		C381.735,56.048,381.678,56.565,381.271,56.603z M385.825,91.746l-0.442-0.37l0.287-0.231l0.333,0.278L385.825,91.746z
		 M385.434,88.494l-0.332-0.279l0.278-0.332l0.332,0.278L385.434,88.494z M384.053,72.896c0,0-0.01-0.102,0.092-0.111
		c0.104-0.01,0.112,0.094,0.112,0.094s0.009,0.102-0.094,0.11C384.059,72.999,384.053,72.896,384.053,72.896z M383.697,70.05
		l-0.045-0.51l0.203-0.017l0.426,0.167L383.697,70.05z M383.418,66.889l-0.02-0.201l0.203-0.02l0.018,0.204L383.418,66.889z
		 M383.386,64.221l-0.441-0.37l0.369-0.443l0.444,0.37L383.386,64.221z M399.849,56.394l0.371-0.443l0.453,0.473l-0.262,0.538
		l-0.555-0.467L399.849,56.394z M398.838,61.208l0.473-0.451l0.472,0.676L398.838,61.208z M401.291,65.717l-0.477,0.042l-0.145-0.09
		l0.464-0.554l0.343,0.381L401.291,65.717z M400.582,60.027l-0.443-0.373c-0.037-0.406,0.564-0.563,0.873-0.59
		C401.037,59.371,400.99,59.991,400.582,60.027z M402.778,67.433l-0.322-0.175c0.084-0.214,0.379-0.342,0.585-0.36
		C403.058,67.102,402.982,67.417,402.778,67.433z M402.797,64.145l-0.408,0.037c-0.018-0.204,0.168-0.426,0.371-0.444
		L402.797,64.145z M407.465,98.254l-0.409,0.037c-0.018-0.206,0.169-0.427,0.372-0.447L407.465,98.254z M412.901,94.689l-0.02-0.205
		l0.104-0.007c0.102-0.01,0.211,0.081,0.321,0.176L412.901,94.689z M415.422,86.04l-0.203,0.02l-0.019-0.203l0.204-0.02
		L415.422,86.04z M416.006,77.563l0.104-0.009l0.443,0.371l0.008,0.104c0.037,0.407-0.574,0.462-0.88,0.488L416.006,77.563z
		 M416.842,81.188l-0.27,0.436l-0.342-0.381l0.168-0.426C416.601,80.799,416.824,80.985,416.842,81.188z M416.769,83.866
		l0.104-0.009l0.443,0.373l-0.644,0.877l-0.572-0.668L416.769,83.866z M415.205,83.594l-0.674-0.661l1.085-0.506L415.205,83.594z
		 M414.308,73.503l0.058,0.61l-0.64-0.252L414.308,73.503z M414.111,75.883c0.321,0.176,0.555,0.466,0.69,0.864l-0.463,0.554
		l-0.572-0.67L414.111,75.883z M412.816,78.668c-0.026-0.305,0.028-0.825,0.438-0.859c0.408-0.036,0.555,0.465,0.582,0.77
		L412.816,78.668z M412.222,75.435l0.455-0.658l0.556,0.465l-0.447,0.758L412.222,75.435z M412.406,71.718l0.758,0.446l-0.75,0.786
		l-0.666-0.558L412.406,71.718z M410.768,70.631l0.444,0.371l-0.373,0.443l-0.442-0.371L410.768,70.631z M409.215,69.331
		c0.314,0.074,0.353,0.482,0.368,0.688c-0.202,0.017-0.61,0.054-0.741-0.243L409.215,69.331z M407.778,70.486l0.997,0.835
		l-0.771,0.581l-0.871-0.538L407.778,70.486z M405.933,69.417c0.207-0.019,0.429,0.168,0.445,0.373l-0.271,0.433l-0.343-0.38
		L405.933,69.417z M416.789,50.472c0.104-0.008,0.111,0.095,0.111,0.095s0.01,0.101-0.095,0.11
		c-0.101,0.008-0.108-0.094-0.108-0.094S416.687,50.483,416.789,50.472z M416.551,50.084c0.102-0.009,0.109,0.094,0.109,0.094
		s0.01,0.102-0.092,0.11c-0.104,0.009-0.111-0.094-0.111-0.094S416.449,50.092,416.551,50.084z M415.07,48.467l0.556,0.465
		l-0.465,0.556l-0.554-0.465L415.07,48.467z M415.444,51.517l0.655,0.455l-0.771,0.581l-0.443-0.371L415.444,51.517z"/>
</g>
<g>
	<path fill="#FFFFFF" d="M265.168,26.823h4.639v1.739h-6.512V11.75h1.873V26.823z"/>
	<path fill="#FFFFFF" d="M281.221,28.563h-1.784v-1.448h-0.045c-0.914,1.159-2.141,1.738-3.61,1.738
		c-3.078,0-5.019-2.608-5.019-5.507c0-2.988,1.896-5.553,5.039-5.553c1.429,0,2.722,0.669,3.59,1.783h0.045v-1.494h1.784V28.563z
		 M272.592,23.211c0,2.051,1.204,3.991,3.435,3.991c2.297,0,3.502-1.851,3.502-3.969c0-2.096-1.316-3.79-3.523-3.79
		C273.929,19.443,272.592,21.248,272.592,23.211z"/>
	<path fill="#FFFFFF" d="M293.26,28.563h-1.785v-8.83h-1.092v-1.65h1.092v-3.77h1.785v3.77h1.873v1.65h-1.873V28.563z"/>
	<path fill="#FFFFFF" d="M298.431,19.219h0.045c0.623-0.825,1.159-1.427,2.318-1.427c0.604,0,1.093,0.199,1.605,0.49l-0.848,1.627
		c-0.356-0.244-0.603-0.467-1.07-0.467c-1.963,0-2.052,2.52-2.052,3.879v5.24h-1.783v-10.48h1.783L298.431,19.219L298.431,19.219z"
		/>
	<path fill="#FFFFFF" d="M313.771,28.563h-1.782v-1.448h-0.045c-0.914,1.159-2.142,1.738-3.613,1.738
		c-3.077,0-5.019-2.608-5.019-5.507c0-2.988,1.896-5.553,5.041-5.553c1.428,0,2.721,0.669,3.591,1.783h0.045v-1.494h1.782V28.563z
		 M305.141,23.211c0,2.051,1.204,3.991,3.436,3.991c2.297,0,3.501-1.851,3.501-3.969c0-2.096-1.316-3.79-3.523-3.79
		C306.479,19.443,305.141,21.248,305.141,23.211z"/>
	<path fill="#FFFFFF" d="M320.548,25.129l3.122-7.047h2.008l-5.13,11.172l-5.15-11.172h2.028L320.548,25.129z"/>
	<path fill="#FFFFFF" d="M328.283,23.701c0.021,1.941,1.403,3.501,3.435,3.501c1.517,0,2.497-0.913,3.188-2.163l1.517,0.87
		c-1.004,1.874-2.698,2.943-4.839,2.943c-3.122,0-5.129-2.386-5.129-5.396c0-3.1,1.806-5.664,5.084-5.664
		c3.367,0,5.151,2.787,4.973,5.908L328.283,23.701L328.283,23.701z M334.638,22.186c-0.245-1.516-1.516-2.742-3.077-2.742
		c-1.537,0-2.966,1.227-3.188,2.742H334.638z"/>
	<path fill="#FFFFFF" d="M340.656,19.219h0.045c0.625-0.825,1.16-1.427,2.318-1.427c0.604,0,1.094,0.199,1.606,0.49l-0.848,1.627
		c-0.357-0.244-0.604-0.467-1.07-0.467c-1.963,0-2.053,2.52-2.053,3.879v5.24h-1.783v-10.48h1.783L340.656,19.219L340.656,19.219z"
		/>
	<path fill="#FFFFFF" d="M350.668,20.512c-0.246-0.558-0.781-1.069-1.428-1.069c-0.624,0-1.293,0.49-1.293,1.158
		c0,0.959,1.204,1.316,2.43,1.829c1.227,0.513,2.432,1.249,2.432,3.011c0,1.984-1.604,3.411-3.546,3.411
		c-1.762,0-3.145-1.003-3.702-2.653l1.584-0.669c0.445,0.98,0.959,1.672,2.142,1.672c0.959,0,1.694-0.646,1.694-1.604
		c0-2.342-4.729-1.539-4.729-4.84c0-1.762,1.428-2.965,3.122-2.965c1.204,0,2.319,0.846,2.788,1.939L350.668,20.512z"/>
	<path fill="#FFFFFF" d="M356.218,23.701c0.022,1.941,1.405,3.501,3.436,3.501c1.516,0,2.497-0.913,3.188-2.163l1.517,0.87
		c-1.005,1.874-2.698,2.943-4.839,2.943c-3.122,0-5.13-2.386-5.13-5.396c0-3.1,1.807-5.664,5.084-5.664
		c3.368,0,5.151,2.787,4.974,5.908L356.218,23.701L356.218,23.701z M362.574,22.186c-0.246-1.516-1.519-2.742-3.078-2.742
		c-1.538,0-2.966,1.227-3.189,2.742H362.574z M362.595,12.819l-3.412,3.435l-1.113-0.625l2.652-3.656L362.595,12.819z"/>
	<path fill="#FFFFFF" d="M367.788,23.701c0.021,1.941,1.405,3.501,3.436,3.501c1.517,0,2.497-0.913,3.188-2.163l1.518,0.87
		c-1.003,1.874-2.697,2.943-4.84,2.943c-3.122,0-5.128-2.386-5.128-5.396c0-3.1,1.806-5.664,5.084-5.664
		c3.366,0,5.152,2.787,4.973,5.908L367.788,23.701L367.788,23.701z M374.143,22.186c-0.242-1.516-1.516-2.742-3.076-2.742
		c-1.539,0-2.966,1.227-3.189,2.742H374.143z"/>
	<path fill="#FFFFFF" d="M393.118,27.114h-0.046c-0.869,1.136-2.187,1.738-3.611,1.738c-3.078,0-5.018-2.608-5.018-5.507
		c0-2.988,1.895-5.553,5.039-5.553c1.403,0,2.741,0.669,3.59,1.783h0.046v-9.41h1.782v18.396h-1.782V27.114z M386.27,23.211
		c0,2.051,1.205,3.991,3.437,3.991c2.296,0,3.501-1.851,3.501-3.969c0-2.096-1.316-3.79-3.523-3.79
		C387.609,19.443,386.27,21.248,386.27,23.211z"/>
	<path fill="#FFFFFF" d="M399.09,23.701c0.023,1.941,1.406,3.501,3.437,3.501c1.516,0,2.498-0.913,3.188-2.163l1.519,0.87
		c-1.005,1.874-2.698,2.943-4.841,2.943c-3.121,0-5.129-2.386-5.129-5.396c0-3.1,1.808-5.664,5.086-5.664
		c3.365,0,5.15,2.787,4.974,5.908L399.09,23.701L399.09,23.701z M405.445,22.186c-0.244-1.516-1.517-2.742-3.076-2.742
		c-1.539,0-2.965,1.227-3.189,2.742H405.445z"/>
</g>
<g>
	<path fill="#FFFFFF" d="M221.074,17.667c-11.355,5.163-16.396,18.603-11.234,29.959c4.97,10.932,42.601,44.115,43.885,44.841
		l1.202,0.67c0.146,0.08,0.312,0.087,0.46,0.02c0.146-0.065,0.253-0.197,0.283-0.356l0.285-1.348
		c0.303-1.447,0.049-51.616-4.922-62.55C245.871,17.546,232.431,12.506,221.074,17.667L221.074,17.667z M227.084,30.887
		c4.066-1.849,8.879-0.048,10.729,4.022c1.848,4.068,0.042,8.88-4.023,10.729c-4.07,1.852-8.884,0.046-10.732-4.021
		C221.206,37.547,223.013,32.736,227.084,30.887L227.084,30.887z"/>
</g>
<g>
	<path fill="#FFFFFF" d="M196.074,568.669c-11.355,5.163-16.396,18.603-11.234,29.959c4.97,10.932,42.601,44.114,43.885,44.841
		l1.202,0.67c0.146,0.08,0.312,0.087,0.46,0.02c0.146-0.064,0.253-0.196,0.283-0.355l0.285-1.348
		c0.303-1.447,0.049-51.616-4.922-62.551C220.871,568.549,207.431,563.509,196.074,568.669L196.074,568.669z M202.084,581.89
		c4.066-1.849,8.879-0.048,10.729,4.022c1.848,4.068,0.042,8.879-4.023,10.729c-4.07,1.852-8.884,0.047-10.732-4.021
		C196.206,588.55,198.013,583.738,202.084,581.89L202.084,581.89z"/>
</g>
</svg>
