<?xml version="1.0" encoding="utf-8"?>
<!-- Generator: Adobe Illustrator 16.0.0, SVG Export Plug-In . SVG Version: 6.00 Build 0)  -->
<!DOCTYPE svg PUBLIC "-//W3C//DTD SVG 1.1//EN" "http://www.w3.org/Graphics/SVG/1.1/DTD/svg11.dtd">
<svg version="1.1" id="Calque_1" xmlns="http://www.w3.org/2000/svg" xmlns:xlink="http://www.w3.org/1999/xlink" x="0px" y="0px"
	 width="595.279px" height="841.89px" viewBox="0 0 595.279 841.89" enable-background="new 0 0 595.279 841.89"
	 xml:space="preserve">
<g id="route">
	<g>
		<path fill="none" stroke="#737F98" stroke-width="6" stroke-miterlimit="10" d="M344.876,661.305
			c-38.449-62.635,88.451-92.627,71.521-158.78c-20.423-79.793-124.111-58.862-144.665-111.677
			c-20.553-52.815,86.137-64.056,55.297-134.822c-27.881-63.978-90.244-54.73-90.244-54.73
			c-61.159,22.037-77.35-36.302-39.548-55.789c37.802-19.487,23.872-59.25,23.872-59.25"/>
		<path fill="none" stroke="#F2F2F2" stroke-width="2" stroke-linecap="round" stroke-miterlimit="10" stroke-dasharray="12" d="
			M344.475,659.243c-37.14-60.592,88.853-90.564,71.922-156.718c-20.423-79.793-124.111-58.862-144.665-111.677
			c-20.553-52.815,86.137-64.056,55.297-134.822c-27.881-63.978-90.244-54.73-90.244-54.73
			c-61.159,22.037-77.35-36.302-39.548-55.789c38.969-20.088,24.056-58.646,23.778-59.343"/>
	</g>
</g>
<g id="route_1_">
	<g>
		<path fill="none" stroke="#737F98" stroke-width="6" stroke-linecap="round" stroke-miterlimit="10" d="M344.139,660.079
			c32.564,72.248-100.488,79.014-89.718,152.322c12.99,88.42,118.389,79.042,134.008,138.458
			c15.619,59.42-91.875,57.995-67.654,138.025c21.896,72.357,84.979,70.309,84.979,70.309
			c63.064-15.956,73.819,48.853,34.296,65.023c-39.522,16.174-30.724,22.389-30.724,22.389"/>
		<path fill="none" stroke="#F2F2F2" stroke-width="2" stroke-linecap="round" stroke-miterlimit="10" stroke-dasharray="12" d="
			M345.766,664.277c30.041,64.502-102.115,74.815-91.345,148.124c12.99,88.42,118.389,79.042,134.008,138.458
			c15.619,59.42-91.875,57.995-67.654,138.025c21.896,72.357,84.979,70.309,84.979,70.309
			c63.064-15.956,73.819,48.853,34.296,65.023c-39.522,16.174-30.724,22.389-30.724,22.389"/>
	</g>
</g>
<g>
	<g>
		<path fill="#FFFFFF" stroke="#FFFFFF" stroke-miterlimit="10" d="M267.371,48.467c-4.264-7.533-2.974-12.681-13.777-11.724
			c-7.237,0.642-9.825,17.823-11.029,18.136c-0.479-5.402-0.244-10.868-0.725-16.272c-0.985-1.863-5.24-1.179-7.076-1.017
			l-0.354,0.647c0.295,9.119,0.479,18.144,1.282,27.217c0.922,10.399,0.519,20.913,1.438,31.312
			c0.979,1.761,2.021,3.107,4.267,2.908c4.587-0.405,1.322-11.727,1.062-14.683c-0.101-1.121-0.362-2.947,0.694-3.76
			c1.624-1.376,4.634-1.027,6.619-1.82c11.389-4.811,19.012-16.172,17.909-28.607L267.371,48.467z M262.529,42.525l-0.473,0.454
			l-0.489-0.881C261.975,42.062,262.485,42.017,262.529,42.525z M262.357,45.213l0.443,0.372l-0.474,0.453l-0.538-0.261
			L262.357,45.213z M262.526,48.28l0.546,0.362l-0.371,0.445l-0.646-0.354L262.526,48.28z M256.555,37.714
			c0.814-0.074,0.979,0.633,1.034,1.244c-0.61,0.054-1.334,0.016-1.406-0.8L256.555,37.714z M253.904,37.948l0.647,0.354
			l-0.455,0.657l-0.556-0.464L253.904,37.948z M242.07,59.753l-0.036-0.408c0.214,0.083,0.224,0.186,0.24,0.389L242.07,59.753z
			 M242.509,62.383l0.035,0.407l-0.407,0.036l-0.036-0.407L242.509,62.383z M240.799,47.741l-0.247-0.492l0.176-0.324l0.443,0.373
			L240.799,47.741z M240.649,44.877l-0.353-0.483l0.382-0.341l0.452,0.473L240.649,44.877z M240.722,41.069
			c0.063,0.714-0.335,0.852-0.946,0.905C239.711,41.262,240.11,41.124,240.722,41.069z M238.631,39.508l0.453,0.474l-0.361,0.548
			l-0.464-0.577L238.631,39.508z M238.718,42.788l0.441,0.372l-0.37,0.443l-0.442-0.37L238.718,42.788z M237.246,41.275l0.564,0.565
			l-0.372,0.445l-0.452-0.476L237.246,41.275z M237.5,44.128l0.776,0.651l-0.481,0.352l-0.77-0.55L237.5,44.128z M239.162,62.885
			l0.537,0.262l-0.445,0.76l-0.556-0.468L239.162,62.885z M238.66,59.539l0.75,0.346l-0.278,0.332L238.66,59.539z M239.313,65.751
			l0.437,0.268l-0.382,0.343l-0.436-0.269L239.313,65.751z M239.687,68.798l0.556,0.466l-0.465,0.555l-0.563-0.567L239.687,68.798z
			 M239.746,75.266l0.882-0.49c0.026,0.306,0.082,0.917-0.324,0.954l-0.104,0.009l-0.444-0.371L239.746,75.266z M236.481,52.335
			l0.678-0.472c0.027,0.307,0.081,0.919-0.326,0.955L236.481,52.335z M237.067,55.467c0,0,0.009,0.104-0.093,0.111
			c-0.103,0.011-0.11-0.092-0.11-0.092s-0.01-0.103,0.093-0.109C237.057,55.368,237.067,55.467,237.067,55.467z M237.08,61.426
			l0.716-0.063c0.046,0.508-0.144,0.731-0.65,0.775L237.08,61.426z M237.658,64.458l0.537,0.262l-0.566,0.563l-0.451-0.473
			L237.658,64.458z M238.695,77.311l-0.055-0.61l0.51-0.046C239.178,76.96,239.103,77.275,238.695,77.311z M239.559,80.11
			l-0.371,0.443c-0.408,0.037-0.563-0.563-0.591-0.87C238.903,79.656,239.524,79.705,239.559,80.11z M239.445,97.382l-0.655-0.455
			l0.575-0.462L239.445,97.382z M239.073,94.334l-0.103,0.01l-0.442-0.374l0.474-0.453l0.344,0.382
			C239.362,94.102,239.278,94.315,239.073,94.334z M238.682,91.08l-0.436-0.271l0.381-0.341l0.436,0.271L238.682,91.08z
			 M237.994,87.956l0.688-0.37c0.025,0.307-0.03,0.824-0.336,0.854L237.994,87.956z M237.963,85.288l-0.063-0.714l0.103-0.009
			l0.526,0.158L237.963,85.288z M237.988,82.099l-0.555-0.464l0.883-0.489L237.988,82.099z M237.46,78.447
			c0,0-0.01-0.103,0.094-0.109c0.102-0.01,0.11,0.093,0.11,0.093s0.009,0.102-0.095,0.111
			C237.469,78.55,237.46,78.447,237.46,78.447z M237.158,72.721l-0.547-0.364l0.492-0.248l0.547,0.361L237.158,72.721z
			 M240.565,98.414l0.159-0.529l0.103-0.009c0.408-0.036,0.461,0.576,0.488,0.882L240.565,98.414z M240.442,95.855l-0.103,0.011
			l-0.444-0.373l0.559-0.667l0.647,0.355L240.442,95.855z M240.051,92.602l-0.056-0.61l0.611-0.055l0.055,0.612L240.051,92.602z
			 M240.307,89.704l-0.556-0.465l0.361-0.546l0.444,0.371L240.307,89.704z M239.915,86.45l-0.452-0.474l0.382-0.341l0.441,0.37
			L239.915,86.45z M239.645,83.39l-0.656-0.455l0.381-0.342l0.656,0.455L239.645,83.39z M238.289,68.1l-0.436-0.27l0.276-0.333
			l0.548,0.361L238.289,68.1z M237.299,59.25l-0.063-0.714l0.204-0.018l0.437,0.269L237.299,59.25z M236.469,49.871l-0.064-0.714
			l0.104-0.008l0.526,0.157L236.469,49.871z M236.392,46.693l-0.454-0.475l0.16-0.527l0.665,0.558L236.392,46.693z M235.916,43.652
			l-0.056-0.612l0.103-0.007c0.308-0.028,0.443,0.37,0.464,0.574L235.916,43.652z M235.85,40.577l-0.453-0.475l0.276-0.332
			l0.558,0.464L235.85,40.577z M242.302,97.129l-0.408,0.037l-0.037-0.409l0.41-0.037L242.302,97.129z M242.215,93.848l-0.406,0.037
			l-0.036-0.409l0.408-0.037L242.215,93.848z M241.332,90.845l-0.055-0.613l0.104-0.008l0.332,0.278L241.332,90.845z
			 M241.488,87.955l-0.103,0.009l-0.558-0.465l0.363-0.546l0.666,0.558L241.488,87.955z M241.235,85.1l-0.647-0.354l0.456-0.657
			l0.557,0.466L241.235,85.1z M240.862,82.051l-0.555-0.466l0.465-0.556l0.545,0.364L240.862,82.051z M241.249,78.318l-0.575,0.461
			l-0.665-0.558l0.574-0.46c0.308-0.028,0.631,0.149,0.656,0.455L241.249,78.318z M238.879,57.364l-0.77-0.549l0.475-0.454
			l0.76,0.446L238.879,57.364z M238.505,54.314l-0.647-0.354l0.659-0.674l0.557,0.464L238.505,54.314z M237.568,50.697l0.577-0.46
			l0.452,0.473l-0.466,0.555L237.568,50.697z M238.065,48.188l-0.759-0.446l1.29-0.525
			C238.641,47.725,238.677,48.134,238.065,48.188z M241.618,70.886l-0.714,0.064c-0.045-0.51,0.142-0.731,0.65-0.776L241.618,70.886
			z M239.149,52.305l0.363-0.546l0.646,0.354l-0.456,0.656L239.149,52.305z M241.348,67.829l-0.408,0.037l-0.036-0.408l0.408-0.037
			L241.348,67.829z M240.872,64.789l-0.443-0.372l0.354-0.646l0.648,0.353L240.872,64.789z M240.449,58.866l-0.563-0.565
			l0.372-0.443l0.666,0.557L240.449,58.866z M240.068,55.716l-0.063-0.713l0.104-0.01l0.527,0.16L240.068,55.716z M239.517,49.498
			l-0.462-0.575l0.371-0.443l0.646,0.353L239.517,49.498z M239.348,46.431l-0.769-0.55l0.558-0.665l0.666,0.557L239.348,46.431z
			 M254.172,75.733l-0.036-0.407l0.51-0.045L254.172,75.733z M257.182,72.592l-0.648-0.356l0.474-0.452l0.548,0.363L257.182,72.592z
			 M258.583,71.028l-0.556-0.466l0.362-0.545l0.666,0.559L258.583,71.028z M259.884,69.473l-0.769-0.548l0.678-0.473l0.75,0.346
			L259.884,69.473z M259.214,66.554c-0.025-0.305,0.021-0.928,0.43-0.964l0.442,0.371C260.123,66.37,259.52,66.527,259.214,66.554z
			 M261.149,67.512l-0.471-0.677l0.749,0.346L261.149,67.512z M243.528,78.527l-0.665-0.558c-0.055-0.612-0.374-3.05-0.308-3.467
			c0.868-7.577,0.759-33.148,12.585-34.198c3.567-0.315,4.588,7.71,4.797,10.055C260.94,61.675,256.884,77.342,243.528,78.527z
			 M258.643,40.406l-0.453-0.475l0.363-0.546l0.666,0.558L258.643,40.406z M260.485,41.474l-0.768-0.548l0.37-0.444l0.869,0.539
			L260.485,41.474z M263.544,60.929l-0.02-0.203l0.205-0.021c0.203-0.016,0.313,0.075,0.426,0.168L263.544,60.929z M263.038,55.22
			l-0.054-0.61l0.51-0.045C263.522,54.871,263.445,55.185,263.038,55.22z M262.869,52.153l-0.102,0.011l-0.444-0.373l0.659-0.674
			l0.103-0.009l0.444,0.371L262.869,52.153z M264.796,56.504l-0.238-0.391l0.167-0.424l0.443,0.369L264.796,56.504z M264.627,53.437
			l-0.557-0.465l0.382-0.341l0.436,0.27L264.627,53.437z M264.272,50.591l-0.656-0.455l0.668-0.573l0.771,0.549L264.272,50.591z
			 M263.529,46.854l0.483-0.351l0.546,0.364l-0.475,0.452L263.529,46.854z M264.035,44.447l-0.768-0.548l0.475-0.453l0.759,0.447
			L264.035,44.447z M265.555,48.834l-0.443-0.372l0.371-0.444l0.443,0.373L265.555,48.834z"/>
		<path fill="#FFFFFF" stroke="#FFFFFF" stroke-miterlimit="10" d="M334.144,50.713l-2.648,0.235
			c-7.449,5.204-8.951,10.273-11.065,18.885c-0.093,0.111-0.286,0.262-0.396,0.168c-1.661-2.524,0.531-17.175-3.953-16.778
			l-3.67,0.326l-0.363,0.528c-0.319,1.52,0.19,12.392,0.652,21.27c-1.453,7.737-4.053,19.785-8.933,20.218
			c-2.65,0.234-3.729-3.349-3.909-5.388l-0.724-8.154c-0.496-5.607,0.965-11.593,0.468-17.2c-0.324-3.669-2.218-3.81-5.275-3.539
			c-4.119,2.217-3.29,30.294-11.752,31.044c-4.28,0.379-4.568-6.273-4.822-9.129c-1.039-11.724,4.071-24.709,17.225-25.876
			c2.141-0.189,4.175,0.759,6.324,0.672l0.801-1.406c-0.309-3.467-6.046-3.266-8.491-3.049
			c-13.15,1.165-25.022,14.445-23.839,27.799c0.532,6.015,4.396,14.815,11.633,14.175c6.219-0.552,8.556-8.978,10.38-13.866
			l0.578-0.462c0.222,0.185,0.451,0.474,0.582,0.771c0.739,8.359-0.264,13.276,8.198,17.148l1.133,0.004
			c5.677-0.503,8.866-8.635,10.813-16.547c0.104,1.909,0.332,3.378,0.362,4.151l-0.184,0.839l0.379,4.281
			c0.108,1.224,4.07,1.283,5.09,1.194l0.854-1.104c0.268-7.422,2.591-36.394,11.969-37.226c1.325-0.118,1.824,1.07,1.924,2.192
			c0.353,3.976-4.36,6.55-4.063,9.915c0.099,1.122,1.64,1.088,2.457,1.015c5.604-0.496,5.527-5.422,7.89-9.535l-0.101-1.121
			C339.339,53.492,337.261,52.256,334.144,50.713z M293.105,54.817l0.019,0.202l-0.224-0.186L293.105,54.817z M283.775,58.521
			l0.188-0.221c0.203-0.02,0.424,0.167,0.441,0.369c0.035,0.409-0.361,0.546-0.669,0.574L283.775,58.521z M277.41,70.18
			l-0.223-0.187l0.202-0.019L277.41,70.18z M279.871,63.181l0.444,0.371c0.036,0.408-0.565,0.563-0.873,0.591
			C279.416,63.837,279.465,63.217,279.871,63.181z M278.199,65.179l0.307-0.027l0.546,0.361c0.037,0.409-0.464,0.555-0.771,0.582
			L278.199,65.179z M277.001,66.724l0.103-0.009l0.443,0.37l0.008,0.102c0.02,0.205-0.176,0.325-0.38,0.342l-0.442-0.37
			L277.001,66.724z M273.184,74.664l0.563,0.566l-0.476,0.454l-0.545-0.363L273.184,74.664z M273.455,77.723
			c0.611-0.055,0.648,0.353,0.693,0.863l-0.408,0.034c-0.306,0.027-0.724-0.036-0.76-0.443L273.455,77.723z M273.624,80.79
			l0.667,0.559l-0.475,0.453l-0.556-0.466L273.624,80.79z M273.895,83.847l0.667,0.558l-0.558,0.666l-0.462-0.575L273.895,83.847z
			 M271.969,79.499l0.537,0.26l-0.465,0.556l-0.343-0.38L271.969,79.499z M272.388,86.55l0.326-0.954l0.556,0.466L272.388,86.55z
			 M272.672,83.957l-0.685-0.762l0.354-0.647l0.657,0.455L272.672,83.957z M274.834,90.958l-0.556-0.464l0.262-0.538l0.554,0.465
			L274.834,90.958z M274.256,87.926l-0.443-0.372c-0.045-0.511,0.67-0.573,0.975-0.6l0.203-0.019
			C275.037,87.447,274.869,87.873,274.256,87.926z M274.332,70.248l0.224,0.185l-0.203,0.018L274.332,70.248z M275.353,79.405
			l-0.253,0.637l-0.463-0.574L275.353,79.405z M274.494,76.706l0.364-0.545l0.452,0.473l-0.483,0.351L274.494,76.706z
			 M276.232,91.656l-0.203,0.018l0.187-0.221L276.232,91.656z M275.912,89.217l-0.352-0.482l0.278-0.332l0.342,0.38L275.912,89.217z
			 M275.215,85.992l0.354-0.648l0.462,0.577L275.215,85.992z M275.574,83.084l-0.547-0.362l0.476-0.454l0.555,0.466L275.574,83.084z
			 M274.76,73.909l-0.545-0.362l0.559-0.665l0.655,0.454L274.76,73.909z M294.638,73.277c0,0,0.103-0.011,0.11,0.091
			c0.009,0.104-0.094,0.112-0.094,0.112s-0.103,0.011-0.108-0.093C294.536,73.286,294.638,73.277,294.638,73.277z M295.435,85.74
			c-0.103,0.01-0.111-0.093-0.111-0.093s-0.008-0.103,0.094-0.11c0.104-0.01,0.111,0.093,0.111,0.093S295.536,85.731,295.435,85.74z
			 M296.395,91.923c-0.214-0.083-0.343-0.381-0.361-0.585l0.307-0.026L296.395,91.923z M295.596,82.952
			c-0.108-0.094-0.221-0.187-0.229-0.287c-0.009-0.102,0.084-0.213,0.178-0.323l0.239,0.389L295.596,82.952z M296.827,80.582
			c0.214,0.085,0.222,0.188,0.24,0.39l-0.408,0.036C296.641,80.804,296.632,80.703,296.827,80.582z M297.2,87.125l-0.053-0.611
			l0.202-0.019c0.307-0.025,0.537,0.262,0.563,0.567L297.2,87.125z M296.858,67.016l-0.019-0.203l0.203-0.017
			c0.203-0.019,0.313,0.074,0.425,0.167L296.858,67.016z M314.698,88.657l-0.203,0.017l-0.019-0.203l0.203-0.018L314.698,88.657z
			 M315.127,63.343l0.665,0.558l-0.539,0.869l-0.472-0.677L315.127,63.343z M314.689,60.711l0.37-0.444l0.454,0.476l-0.381,0.342
			L314.689,60.711z M316.044,66.756l-0.371,0.444l-0.442-0.373l0.372-0.442L316.044,66.756z M313.337,55.9l0.487,0.881l-0.953-0.327
			L313.337,55.9z M316.12,90.79l-0.674-0.657l0.565-0.565l0.853,0.335L316.12,90.79z M315.934,87.521l-0.545-0.363l0.558-0.667
			l0.667,0.559L315.934,87.521z M315.476,81.19l-0.647-0.354l0.56-0.665l0.655,0.455L315.476,81.19z M314.647,75.098
			c0.01-0.06,0.021-0.116,0.03-0.177l0.185-0.664c0.323,0.177,0.455,0.476,0.582,0.771L314.647,75.098z M315.167,77.725l0.021,0.201
			l-0.204,0.021L315.167,77.725z M314.39,68.958l-0.229-0.287l0.38-0.342l0.427,0.166L314.39,68.958z M314.24,66.093l-0.545-0.361
			l0.455-0.658l0.547,0.361L314.24,66.093z M313.425,62.673c0.092-0.111,0.187-0.222,0.286-0.23
			c0.103-0.009,0.214,0.084,0.323,0.176c-0.093,0.112-0.188,0.223-0.288,0.232C313.647,62.858,313.534,62.765,313.425,62.673z
			 M313.615,60.19l-0.462-0.576l0.456-0.657l0.563,0.567L313.615,60.19z M317.595,91.173c-0.104,0.01-0.111-0.093-0.111-0.093
			s-0.01-0.102,0.093-0.109c0.103-0.01,0.11,0.093,0.11,0.093S317.697,91.167,317.595,91.173z M317.013,85.779l-0.342-0.381
			l0.271-0.434l0.342,0.381L317.013,85.779z M315.874,72.936l0.529,0.159l-0.169,0.425
			C316.023,73.437,315.892,73.139,315.874,72.936z M316.759,79.435l-0.021-0.205l0.429,0.168L316.759,79.435z M315.946,70.258
			l-0.358-0.586l0.814-0.071L315.946,70.258z M314.284,58.486c-0.035-0.407-0.006-1.232,0.504-1.276l0.666,0.558
			C315.499,58.277,314.694,58.451,314.284,58.486z M318.134,77.563c0,0-0.103,0.01-0.11-0.092c-0.01-0.104,0.093-0.11,0.093-0.11
			s0.104-0.01,0.11,0.094C318.237,77.554,318.134,77.563,318.134,77.563z M317.974,74.599c-0.202,0.019-0.307,0.026-0.426-0.169
			c0.084-0.213,0.187-0.223,0.391-0.239L317.974,74.599z M317.72,71.744l-0.222-0.186l0.187-0.222L317.72,71.744z M317.228,68.5
			l-0.018-0.204l0.405-0.037C317.534,68.473,317.431,68.482,317.228,68.5z M316.872,65.655l-0.545-0.362l0.475-0.454l0.545,0.362
			L316.872,65.655z M316.534,59.521l-0.342-0.381l0.168-0.426c0.204-0.019,0.424,0.168,0.442,0.37L316.534,59.521z M316.382,56.658
			l-0.442-0.373l0.373-0.443c0.202-0.018,0.425,0.168,0.441,0.371C316.775,56.417,316.587,56.639,316.382,56.658z M319.565,76.305
			l-0.656-0.453c-0.036-0.408,0.574-0.463,0.779-0.48l0.306-0.027L319.565,76.305z M334.475,54.436l0.406-0.035
			c-0.082,0.212-0.186,0.223-0.389,0.24L334.475,54.436z M334.147,65.769l-0.558-0.466l0.362-0.545l0.655,0.454L334.147,65.769z
			 M335.325,64.017l-0.657-0.452l0.565-0.566l0.654,0.456L335.325,64.017z M335.175,61.156l-0.354-0.483l0.262-0.536l0.556,0.465
			L335.175,61.156z M336.03,55.737l0.405-0.035l0.037,0.408l-0.407,0.035L336.03,55.737z M336.54,62.679l-0.563-0.568l0.558-0.665
			l0.677,0.658L336.54,62.679z M336.439,59.194l-0.332-0.278l0.379-0.342l0.427,0.167L336.439,59.194z M337.805,57.222l-0.204,0.02
			l-0.018-0.203l0.202-0.019L337.805,57.222z"/>
		<path fill="#FFFFFF" stroke="#FFFFFF" stroke-miterlimit="10" d="M350.542,39.863c2.142-0.191,3.896-1.272,3.688-3.616
			c-0.208-2.345-2.777-4.687-5.123-4.478c-2.037,0.182-3.703,2.281-3.521,4.319C345.793,38.433,348.302,40.061,350.542,39.863z
			 M350.343,34.126l0.204-0.019l0.037,0.408l-0.206,0.018L350.343,34.126z M351.115,37.036l-0.346,0.751l-0.331-0.279
			L351.115,37.036z"/>
		<path fill="#FFFFFF" stroke="#FFFFFF" stroke-miterlimit="10" d="M386.626,50.532c-0.309-3.465-5.203-4.778-8.058-4.524
			c-12.438,1.102-11.455,13.139-13.17,14.316l0.254,2.856c1.026,1.336,1.386,3.004,2.241,4.402
			c-0.963,5.84-3.633,22.435-9.443,22.949c-3.468,0.306-3.977-5.299-4.192-7.745c-0.38-4.281-0.624-9.294-0.596-13.612
			c0.021-5.55,0.422-11.441-0.067-16.946c-0.288-3.263-2.58-3.574-5.228-3.34c-0.92,0.082-1.308,6.179-1.344,6.901
			c-0.332,7.837-0.313,16.158,0.381,24.007c0.335,3.773,1.387,9.842,4.196,12.57c1.007,0.938,2.563,1.119,3.459,1.949l1.226-0.107
			c7.238-0.642,10.188-10.25,11.509-16.222c0.221-1.195,1.094-5.312,1.672-8.495c4.625,4.53,11.485,7.457,12.138,14.773
			c0.56,6.319-6.439,11.975-11.672,14.391c0.341,1.511,3.342,1.761,4.564,1.651l1.316-0.219c7.295-5.784,12.293-7.356,11.334-18.163
			c-0.976-11.01-15.165-13.45-16.124-24.256c-0.39-4.384,2.226-8.521,6.814-8.928c1.832-0.161,3.332,0.528,3.512,2.566
			c0.184,2.039-1.737,3.545-1.659,5.593C382.852,56.621,386.943,54.102,386.626,50.532z M348.712,66.736
			c0.103-0.008,0.11,0.093,0.11,0.093s0.01,0.102-0.092,0.11c-0.103,0.011-0.111-0.092-0.111-0.092S348.613,66.746,348.712,66.736z
			 M348.987,69.795l0.229,0.288c0.019,0.204-0.278,0.332-0.483,0.35C348.715,70.23,348.79,69.915,348.987,69.795z M349.952,76.08
			l-0.476,0.452l-0.486-0.882C349.399,75.613,349.907,75.569,349.952,76.08z M350.166,79.656l-0.747-0.345l0.277-0.333
			L350.166,79.656z M350.21,85.921l-0.241-0.391c-0.027-0.307,0.361-0.546,0.669-0.574C350.673,85.365,350.718,85.874,350.21,85.921
			z M350.243,82.835c-0.308,0.026-0.45-0.474-0.479-0.781l0.815-0.071C350.607,82.288,350.548,82.808,350.243,82.835z
			 M350.774,57.513l0.407-0.037l-0.392,0.24L350.774,57.513z M351.026,60.365l0.407-0.035l0.037,0.409l-0.407,0.036L351.026,60.365z
			 M351.331,80.066l0.455,0.474l0.011,0.102l-0.373,0.443l-0.442-0.37L351.331,80.066z M350.911,74.145l0.538,0.261l-0.762,0.684
			l-0.082-0.918L350.911,74.145z M349.54,62.142l0.185-0.222l0.037,0.407L349.54,62.142z M349.591,59.261
			c0,0-0.008-0.103,0.094-0.111c0.103-0.01,0.111,0.092,0.111,0.092s0.008,0.104-0.095,0.111
			C349.601,59.365,349.591,59.261,349.591,59.261z M352.424,90.039c-0.104,0.008-0.111-0.095-0.111-0.095s-0.011-0.101,0.092-0.111
			c0.104-0.008,0.11,0.095,0.11,0.095S352.526,90.029,352.424,90.039z M352.169,87.185l-0.441-0.371
			c-0.036-0.408,0.565-0.565,0.87-0.593C352.625,86.527,352.577,87.147,352.169,87.185z M351.483,84.06l-0.063-0.712l0.918-0.082
			C352.392,83.877,351.991,84.014,351.483,84.06z M349.458,56.603c-0.406,0.036-0.556-0.465-0.581-0.772l1.02-0.089
			C349.922,56.048,349.865,56.565,349.458,56.603z M354.012,91.746l-0.441-0.37l0.287-0.231l0.333,0.278L354.012,91.746z
			 M353.621,88.494l-0.332-0.279l0.278-0.332l0.332,0.278L353.621,88.494z M352.24,72.896c0,0-0.01-0.102,0.092-0.111
			c0.104-0.01,0.112,0.094,0.112,0.094s0.009,0.102-0.095,0.11C352.246,72.999,352.24,72.896,352.24,72.896z M351.884,70.05
			l-0.045-0.51l0.203-0.017l0.426,0.167L351.884,70.05z M351.606,66.889l-0.021-0.201l0.203-0.02l0.018,0.204L351.606,66.889z
			 M351.573,64.221l-0.441-0.37l0.369-0.443l0.444,0.37L351.573,64.221z M368.036,56.394l0.371-0.443l0.453,0.473l-0.263,0.538
			l-0.555-0.467L368.036,56.394z M367.026,61.208l0.473-0.451l0.472,0.676L367.026,61.208z M369.478,65.717l-0.477,0.042
			l-0.145-0.09l0.464-0.554l0.343,0.381L369.478,65.717z M368.769,60.027l-0.442-0.373c-0.037-0.406,0.563-0.563,0.873-0.59
			C369.224,59.371,369.177,59.991,368.769,60.027z M370.965,67.433l-0.322-0.175c0.084-0.214,0.38-0.342,0.586-0.36
			C371.245,67.102,371.169,67.417,370.965,67.433z M370.985,64.145l-0.408,0.037c-0.019-0.204,0.168-0.426,0.371-0.444
			L370.985,64.145z M375.653,98.254l-0.409,0.037c-0.019-0.206,0.169-0.427,0.372-0.447L375.653,98.254z M381.088,94.689
			l-0.02-0.205l0.104-0.007c0.103-0.01,0.211,0.081,0.321,0.176L381.088,94.689z M383.61,86.04l-0.203,0.02l-0.02-0.203l0.204-0.02
			L383.61,86.04z M384.194,77.563l0.104-0.009l0.443,0.371l0.008,0.104c0.037,0.407-0.574,0.462-0.88,0.488L384.194,77.563z
			 M385.03,81.188l-0.271,0.436l-0.342-0.381l0.168-0.426C384.788,80.799,385.011,80.985,385.03,81.188z M384.956,83.866
			l0.104-0.009l0.443,0.373l-0.644,0.877l-0.572-0.668L384.956,83.866z M383.392,83.594l-0.674-0.661l1.085-0.506L383.392,83.594z
			 M382.495,73.503l0.058,0.61l-0.64-0.252L382.495,73.503z M382.298,75.883c0.321,0.176,0.555,0.466,0.69,0.864l-0.463,0.554
			l-0.572-0.67L382.298,75.883z M381.003,78.668c-0.026-0.305,0.028-0.825,0.438-0.859c0.407-0.036,0.555,0.465,0.582,0.77
			L381.003,78.668z M380.409,75.435l0.455-0.658l0.556,0.465L380.973,76L380.409,75.435z M380.593,71.718l0.758,0.446l-0.75,0.786
			l-0.666-0.558L380.593,71.718z M378.955,70.631l0.444,0.371l-0.373,0.443l-0.442-0.371L378.955,70.631z M377.403,69.331
			c0.313,0.074,0.353,0.482,0.367,0.688c-0.201,0.017-0.609,0.054-0.74-0.243L377.403,69.331z M375.965,70.486l0.997,0.835
			l-0.771,0.581l-0.871-0.538L375.965,70.486z M374.12,69.417c0.207-0.019,0.429,0.168,0.445,0.373l-0.271,0.433l-0.343-0.38
			L374.12,69.417z M384.976,50.472c0.104-0.008,0.111,0.095,0.111,0.095s0.01,0.101-0.095,0.11
			c-0.102,0.008-0.108-0.094-0.108-0.094S384.874,50.483,384.976,50.472z M384.739,50.084c0.102-0.009,0.108,0.094,0.108,0.094
			s0.011,0.103-0.092,0.11c-0.104,0.009-0.111-0.094-0.111-0.094S384.636,50.092,384.739,50.084z M383.257,48.467l0.557,0.465
			l-0.466,0.556l-0.554-0.465L383.257,48.467z M383.631,51.517l0.655,0.455l-0.771,0.581l-0.442-0.371L383.631,51.517z"/>
	</g>
	<g>
		<path fill="#FFFFFF" d="M233.352,26.823h4.639v1.739h-6.512V11.75h1.873V26.823z"/>
		<path fill="#FFFFFF" d="M249.405,28.563h-1.784v-1.448h-0.045c-0.914,1.159-2.141,1.738-3.609,1.738
			c-3.078,0-5.02-2.608-5.02-5.507c0-2.988,1.896-5.553,5.039-5.553c1.429,0,2.722,0.669,3.59,1.783h0.045v-1.494h1.784V28.563z
			 M240.776,23.211c0,2.051,1.204,3.991,3.435,3.991c2.298,0,3.502-1.851,3.502-3.969c0-2.096-1.315-3.79-3.522-3.79
			C242.113,19.443,240.776,21.248,240.776,23.211z"/>
		<path fill="#FFFFFF" d="M261.444,28.563h-1.785v-8.83h-1.092v-1.65h1.092v-3.77h1.785v3.77h1.873v1.65h-1.873V28.563z"/>
		<path fill="#FFFFFF" d="M266.615,19.219h0.045c0.623-0.825,1.159-1.427,2.318-1.427c0.604,0,1.093,0.199,1.604,0.49l-0.848,1.627
			c-0.356-0.244-0.604-0.467-1.07-0.467c-1.963,0-2.052,2.52-2.052,3.879v5.24h-1.783v-10.48h1.783L266.615,19.219L266.615,19.219z"
			/>
		<path fill="#FFFFFF" d="M281.955,28.563h-1.782v-1.448h-0.045c-0.914,1.159-2.142,1.738-3.613,1.738
			c-3.077,0-5.019-2.608-5.019-5.507c0-2.988,1.896-5.553,5.042-5.553c1.428,0,2.721,0.669,3.591,1.783h0.045v-1.494h1.782V28.563
			L281.955,28.563z M273.325,23.211c0,2.051,1.205,3.991,3.436,3.991c2.297,0,3.501-1.851,3.501-3.969
			c0-2.096-1.315-3.79-3.522-3.79C274.663,19.443,273.325,21.248,273.325,23.211z"/>
		<path fill="#FFFFFF" d="M288.733,25.129l3.122-7.047h2.008l-5.13,11.172l-5.15-11.172h2.028L288.733,25.129z"/>
		<path fill="#FFFFFF" d="M296.468,23.701c0.021,1.941,1.403,3.501,3.436,3.501c1.518,0,2.499-0.913,3.189-2.163l1.518,0.87
			c-1.004,1.874-2.699,2.943-4.841,2.943c-3.122,0-5.13-2.386-5.13-5.396c0-3.1,1.807-5.664,5.084-5.664
			c3.369,0,5.153,2.787,4.976,5.908L296.468,23.701L296.468,23.701z M302.825,22.186c-0.245-1.516-1.518-2.742-3.079-2.742
			c-1.537,0-2.966,1.227-3.188,2.742H302.825z"/>
		<path fill="#FFFFFF" d="M308.843,19.219h0.045c0.625-0.825,1.16-1.427,2.318-1.427c0.604,0,1.094,0.199,1.606,0.49l-0.849,1.627
			c-0.356-0.244-0.604-0.467-1.07-0.467c-1.963,0-2.053,2.52-2.053,3.879v5.24h-1.783v-10.48h1.783L308.843,19.219L308.843,19.219z"
			/>
		<path fill="#FFFFFF" d="M318.856,20.512c-0.246-0.558-0.781-1.069-1.429-1.069c-0.624,0-1.293,0.49-1.293,1.158
			c0,0.959,1.204,1.316,2.431,1.829c1.227,0.513,2.432,1.249,2.432,3.011c0,1.984-1.604,3.411-3.546,3.411
			c-1.762,0-3.146-1.003-3.702-2.653l1.584-0.669c0.445,0.98,0.959,1.672,2.142,1.672c0.959,0,1.694-0.646,1.694-1.604
			c0-2.342-4.729-1.539-4.729-4.84c0-1.762,1.428-2.965,3.121-2.965c1.204,0,2.319,0.846,2.788,1.939L318.856,20.512z"/>
		<path fill="#FFFFFF" d="M324.406,23.701c0.021,1.941,1.404,3.501,3.436,3.501c1.517,0,2.497-0.913,3.188-2.163l1.517,0.87
			c-1.005,1.874-2.698,2.943-4.839,2.943c-3.122,0-5.13-2.386-5.13-5.396c0-3.1,1.807-5.664,5.084-5.664
			c3.368,0,5.151,2.787,4.974,5.908L324.406,23.701L324.406,23.701z M330.761,22.186c-0.246-1.516-1.519-2.742-3.078-2.742
			c-1.538,0-2.966,1.227-3.188,2.742H330.761z M330.782,12.819l-3.412,3.435l-1.113-0.625l2.652-3.656L330.782,12.819z"/>
		<path fill="#FFFFFF" d="M335.975,23.701c0.021,1.941,1.405,3.501,3.437,3.501c1.517,0,2.497-0.913,3.188-2.163l1.519,0.87
			c-1.003,1.874-2.697,2.943-4.84,2.943c-3.122,0-5.128-2.386-5.128-5.396c0-3.1,1.806-5.664,5.084-5.664
			c3.365,0,5.151,2.787,4.973,5.908L335.975,23.701L335.975,23.701z M342.33,22.186c-0.242-1.516-1.516-2.742-3.076-2.742
			c-1.539,0-2.966,1.227-3.188,2.742H342.33z"/>
		<path fill="#FFFFFF" d="M361.305,27.114h-0.046c-0.869,1.136-2.187,1.738-3.61,1.738c-3.078,0-5.019-2.608-5.019-5.507
			c0-2.988,1.896-5.553,5.039-5.553c1.403,0,2.741,0.669,3.59,1.783h0.046v-9.41h1.782v18.396h-1.782V27.114z M354.457,23.211
			c0,2.051,1.205,3.991,3.437,3.991c2.297,0,3.501-1.851,3.501-3.969c0-2.096-1.315-3.79-3.522-3.79
			C355.796,19.443,354.457,21.248,354.457,23.211z"/>
		<path fill="#FFFFFF" d="M367.278,23.701c0.022,1.941,1.405,3.501,3.437,3.501c1.517,0,2.498-0.913,3.188-2.163l1.519,0.87
			c-1.005,1.874-2.698,2.943-4.841,2.943c-3.121,0-5.129-2.386-5.129-5.396c0-3.1,1.808-5.664,5.086-5.664
			c3.365,0,5.15,2.787,4.974,5.908L367.278,23.701L367.278,23.701z M373.632,22.186c-0.244-1.516-1.517-2.742-3.076-2.742
			c-1.539,0-2.965,1.227-3.188,2.742H373.632z"/>
	</g>
	<g>
		<path fill="#FFFFFF" d="M189.259,17.667c-11.355,5.163-16.396,18.603-11.234,29.959c4.97,10.932,42.601,44.115,43.885,44.841
			l1.202,0.67c0.146,0.08,0.312,0.087,0.46,0.021c0.146-0.065,0.253-0.197,0.283-0.356l0.285-1.348
			c0.303-1.447,0.049-51.616-4.922-62.55C214.055,17.546,200.615,12.506,189.259,17.667L189.259,17.667z M195.268,30.887
			c4.065-1.849,8.879-0.048,10.729,4.022c1.849,4.068,0.042,8.88-4.022,10.729c-4.07,1.852-8.885,0.046-10.732-4.021
			C189.39,37.547,191.197,32.736,195.268,30.887L195.268,30.887z"/>
	</g>
</g>
</svg>
